%TF.GenerationSoftware,KiCad,Pcbnew,7.0.6*%
%TF.CreationDate,2023-10-18T20:18:50+02:00*%
%TF.ProjectId,Hydrofoil,48796472-6f66-46f6-996c-2e6b69636164,rev?*%
%TF.SameCoordinates,Original*%
%TF.FileFunction,Legend,Top*%
%TF.FilePolarity,Positive*%
%FSLAX46Y46*%
G04 Gerber Fmt 4.6, Leading zero omitted, Abs format (unit mm)*
G04 Created by KiCad (PCBNEW 7.0.6) date 2023-10-18 20:18:50*
%MOMM*%
%LPD*%
G01*
G04 APERTURE LIST*
%ADD10C,0.300000*%
%ADD11C,0.500000*%
%ADD12C,0.150000*%
%ADD13C,0.100000*%
%ADD14C,0.120000*%
%ADD15C,0.152400*%
G04 APERTURE END LIST*
D10*
X192423942Y-106528950D02*
X192424775Y-103228950D01*
X192425078Y-102028950D02*
X192425912Y-98728950D01*
X192426215Y-97528950D02*
X192427048Y-94228950D01*
X192427351Y-93028950D02*
X192428185Y-89728951D01*
X192428488Y-88528951D02*
X192429321Y-85228951D01*
X192429624Y-84028951D02*
X192430458Y-80728951D01*
X192430761Y-79528951D02*
X192431594Y-76228951D01*
X192431897Y-75028951D02*
X192432715Y-71790516D01*
D11*
X134149407Y-71830892D02*
X134148989Y-106497336D01*
D10*
X62435828Y-99688901D02*
X62435828Y-99403187D01*
X62435828Y-99403187D02*
X62507257Y-99260330D01*
X62507257Y-99260330D02*
X62650114Y-99117473D01*
X62650114Y-99117473D02*
X62935828Y-99046044D01*
X62935828Y-99046044D02*
X63435828Y-99046044D01*
X63435828Y-99046044D02*
X63721542Y-99117473D01*
X63721542Y-99117473D02*
X63864400Y-99260330D01*
X63864400Y-99260330D02*
X63935828Y-99403187D01*
X63935828Y-99403187D02*
X63935828Y-99688901D01*
X63935828Y-99688901D02*
X63864400Y-99831759D01*
X63864400Y-99831759D02*
X63721542Y-99974616D01*
X63721542Y-99974616D02*
X63435828Y-100046044D01*
X63435828Y-100046044D02*
X62935828Y-100046044D01*
X62935828Y-100046044D02*
X62650114Y-99974616D01*
X62650114Y-99974616D02*
X62507257Y-99831759D01*
X62507257Y-99831759D02*
X62435828Y-99688901D01*
X62935828Y-97760330D02*
X63935828Y-97760330D01*
X62935828Y-98403187D02*
X63721542Y-98403187D01*
X63721542Y-98403187D02*
X63864400Y-98331758D01*
X63864400Y-98331758D02*
X63935828Y-98188901D01*
X63935828Y-98188901D02*
X63935828Y-97974615D01*
X63935828Y-97974615D02*
X63864400Y-97831758D01*
X63864400Y-97831758D02*
X63792971Y-97760330D01*
X62935828Y-97260329D02*
X62935828Y-96688901D01*
X62435828Y-97046044D02*
X63721542Y-97046044D01*
X63721542Y-97046044D02*
X63864400Y-96974615D01*
X63864400Y-96974615D02*
X63935828Y-96831758D01*
X63935828Y-96831758D02*
X63935828Y-96688901D01*
X55045828Y-99974616D02*
X53545828Y-99974616D01*
X54045828Y-99260330D02*
X55045828Y-99260330D01*
X54188685Y-99260330D02*
X54117257Y-99188901D01*
X54117257Y-99188901D02*
X54045828Y-99046044D01*
X54045828Y-99046044D02*
X54045828Y-98831758D01*
X54045828Y-98831758D02*
X54117257Y-98688901D01*
X54117257Y-98688901D02*
X54260114Y-98617473D01*
X54260114Y-98617473D02*
X55045828Y-98617473D01*
D12*
X40278207Y-81983946D02*
X39944874Y-81507755D01*
X39706779Y-81983946D02*
X39706779Y-80983946D01*
X39706779Y-80983946D02*
X40087731Y-80983946D01*
X40087731Y-80983946D02*
X40182969Y-81031565D01*
X40182969Y-81031565D02*
X40230588Y-81079184D01*
X40230588Y-81079184D02*
X40278207Y-81174422D01*
X40278207Y-81174422D02*
X40278207Y-81317279D01*
X40278207Y-81317279D02*
X40230588Y-81412517D01*
X40230588Y-81412517D02*
X40182969Y-81460136D01*
X40182969Y-81460136D02*
X40087731Y-81507755D01*
X40087731Y-81507755D02*
X39706779Y-81507755D01*
X41087731Y-81936327D02*
X40992493Y-81983946D01*
X40992493Y-81983946D02*
X40802017Y-81983946D01*
X40802017Y-81983946D02*
X40706779Y-81936327D01*
X40706779Y-81936327D02*
X40659160Y-81841088D01*
X40659160Y-81841088D02*
X40659160Y-81460136D01*
X40659160Y-81460136D02*
X40706779Y-81364898D01*
X40706779Y-81364898D02*
X40802017Y-81317279D01*
X40802017Y-81317279D02*
X40992493Y-81317279D01*
X40992493Y-81317279D02*
X41087731Y-81364898D01*
X41087731Y-81364898D02*
X41135350Y-81460136D01*
X41135350Y-81460136D02*
X41135350Y-81555374D01*
X41135350Y-81555374D02*
X40659160Y-81650612D01*
X41516303Y-81936327D02*
X41611541Y-81983946D01*
X41611541Y-81983946D02*
X41802017Y-81983946D01*
X41802017Y-81983946D02*
X41897255Y-81936327D01*
X41897255Y-81936327D02*
X41944874Y-81841088D01*
X41944874Y-81841088D02*
X41944874Y-81793469D01*
X41944874Y-81793469D02*
X41897255Y-81698231D01*
X41897255Y-81698231D02*
X41802017Y-81650612D01*
X41802017Y-81650612D02*
X41659160Y-81650612D01*
X41659160Y-81650612D02*
X41563922Y-81602993D01*
X41563922Y-81602993D02*
X41516303Y-81507755D01*
X41516303Y-81507755D02*
X41516303Y-81460136D01*
X41516303Y-81460136D02*
X41563922Y-81364898D01*
X41563922Y-81364898D02*
X41659160Y-81317279D01*
X41659160Y-81317279D02*
X41802017Y-81317279D01*
X41802017Y-81317279D02*
X41897255Y-81364898D01*
X42754398Y-81936327D02*
X42659160Y-81983946D01*
X42659160Y-81983946D02*
X42468684Y-81983946D01*
X42468684Y-81983946D02*
X42373446Y-81936327D01*
X42373446Y-81936327D02*
X42325827Y-81841088D01*
X42325827Y-81841088D02*
X42325827Y-81460136D01*
X42325827Y-81460136D02*
X42373446Y-81364898D01*
X42373446Y-81364898D02*
X42468684Y-81317279D01*
X42468684Y-81317279D02*
X42659160Y-81317279D01*
X42659160Y-81317279D02*
X42754398Y-81364898D01*
X42754398Y-81364898D02*
X42802017Y-81460136D01*
X42802017Y-81460136D02*
X42802017Y-81555374D01*
X42802017Y-81555374D02*
X42325827Y-81650612D01*
X43087732Y-81317279D02*
X43468684Y-81317279D01*
X43230589Y-80983946D02*
X43230589Y-81841088D01*
X43230589Y-81841088D02*
X43278208Y-81936327D01*
X43278208Y-81936327D02*
X43373446Y-81983946D01*
X43373446Y-81983946D02*
X43468684Y-81983946D01*
D10*
X51005828Y-99260330D02*
X51005828Y-99974616D01*
X51005828Y-99974616D02*
X51720114Y-100046044D01*
X51720114Y-100046044D02*
X51648685Y-99974616D01*
X51648685Y-99974616D02*
X51577257Y-99831759D01*
X51577257Y-99831759D02*
X51577257Y-99474616D01*
X51577257Y-99474616D02*
X51648685Y-99331759D01*
X51648685Y-99331759D02*
X51720114Y-99260330D01*
X51720114Y-99260330D02*
X51862971Y-99188901D01*
X51862971Y-99188901D02*
X52220114Y-99188901D01*
X52220114Y-99188901D02*
X52362971Y-99260330D01*
X52362971Y-99260330D02*
X52434400Y-99331759D01*
X52434400Y-99331759D02*
X52505828Y-99474616D01*
X52505828Y-99474616D02*
X52505828Y-99831759D01*
X52505828Y-99831759D02*
X52434400Y-99974616D01*
X52434400Y-99974616D02*
X52362971Y-100046044D01*
X51005828Y-98760330D02*
X52505828Y-98260330D01*
X52505828Y-98260330D02*
X51005828Y-97760330D01*
X59895828Y-99260330D02*
X59895828Y-99974616D01*
X59895828Y-99974616D02*
X60610114Y-100046044D01*
X60610114Y-100046044D02*
X60538685Y-99974616D01*
X60538685Y-99974616D02*
X60467257Y-99831759D01*
X60467257Y-99831759D02*
X60467257Y-99474616D01*
X60467257Y-99474616D02*
X60538685Y-99331759D01*
X60538685Y-99331759D02*
X60610114Y-99260330D01*
X60610114Y-99260330D02*
X60752971Y-99188901D01*
X60752971Y-99188901D02*
X61110114Y-99188901D01*
X61110114Y-99188901D02*
X61252971Y-99260330D01*
X61252971Y-99260330D02*
X61324400Y-99331759D01*
X61324400Y-99331759D02*
X61395828Y-99474616D01*
X61395828Y-99474616D02*
X61395828Y-99831759D01*
X61395828Y-99831759D02*
X61324400Y-99974616D01*
X61324400Y-99974616D02*
X61252971Y-100046044D01*
X59895828Y-98760330D02*
X61395828Y-98260330D01*
X61395828Y-98260330D02*
X59895828Y-97760330D01*
X48537257Y-99188901D02*
X48465828Y-99331759D01*
X48465828Y-99331759D02*
X48465828Y-99546044D01*
X48465828Y-99546044D02*
X48537257Y-99760330D01*
X48537257Y-99760330D02*
X48680114Y-99903187D01*
X48680114Y-99903187D02*
X48822971Y-99974616D01*
X48822971Y-99974616D02*
X49108685Y-100046044D01*
X49108685Y-100046044D02*
X49322971Y-100046044D01*
X49322971Y-100046044D02*
X49608685Y-99974616D01*
X49608685Y-99974616D02*
X49751542Y-99903187D01*
X49751542Y-99903187D02*
X49894400Y-99760330D01*
X49894400Y-99760330D02*
X49965828Y-99546044D01*
X49965828Y-99546044D02*
X49965828Y-99403187D01*
X49965828Y-99403187D02*
X49894400Y-99188901D01*
X49894400Y-99188901D02*
X49822971Y-99117473D01*
X49822971Y-99117473D02*
X49322971Y-99117473D01*
X49322971Y-99117473D02*
X49322971Y-99403187D01*
X49965828Y-98474616D02*
X48465828Y-98474616D01*
X48465828Y-98474616D02*
X49965828Y-97617473D01*
X49965828Y-97617473D02*
X48465828Y-97617473D01*
X49965828Y-96903187D02*
X48465828Y-96903187D01*
X48465828Y-96903187D02*
X48465828Y-96546044D01*
X48465828Y-96546044D02*
X48537257Y-96331758D01*
X48537257Y-96331758D02*
X48680114Y-96188901D01*
X48680114Y-96188901D02*
X48822971Y-96117472D01*
X48822971Y-96117472D02*
X49108685Y-96046044D01*
X49108685Y-96046044D02*
X49322971Y-96046044D01*
X49322971Y-96046044D02*
X49608685Y-96117472D01*
X49608685Y-96117472D02*
X49751542Y-96188901D01*
X49751542Y-96188901D02*
X49894400Y-96331758D01*
X49894400Y-96331758D02*
X49965828Y-96546044D01*
X49965828Y-96546044D02*
X49965828Y-96903187D01*
D12*
X40040112Y-87810136D02*
X40182969Y-87857755D01*
X40182969Y-87857755D02*
X40230588Y-87905374D01*
X40230588Y-87905374D02*
X40278207Y-88000612D01*
X40278207Y-88000612D02*
X40278207Y-88143469D01*
X40278207Y-88143469D02*
X40230588Y-88238707D01*
X40230588Y-88238707D02*
X40182969Y-88286327D01*
X40182969Y-88286327D02*
X40087731Y-88333946D01*
X40087731Y-88333946D02*
X39706779Y-88333946D01*
X39706779Y-88333946D02*
X39706779Y-87333946D01*
X39706779Y-87333946D02*
X40040112Y-87333946D01*
X40040112Y-87333946D02*
X40135350Y-87381565D01*
X40135350Y-87381565D02*
X40182969Y-87429184D01*
X40182969Y-87429184D02*
X40230588Y-87524422D01*
X40230588Y-87524422D02*
X40230588Y-87619660D01*
X40230588Y-87619660D02*
X40182969Y-87714898D01*
X40182969Y-87714898D02*
X40135350Y-87762517D01*
X40135350Y-87762517D02*
X40040112Y-87810136D01*
X40040112Y-87810136D02*
X39706779Y-87810136D01*
X40849636Y-88333946D02*
X40754398Y-88286327D01*
X40754398Y-88286327D02*
X40706779Y-88238707D01*
X40706779Y-88238707D02*
X40659160Y-88143469D01*
X40659160Y-88143469D02*
X40659160Y-87857755D01*
X40659160Y-87857755D02*
X40706779Y-87762517D01*
X40706779Y-87762517D02*
X40754398Y-87714898D01*
X40754398Y-87714898D02*
X40849636Y-87667279D01*
X40849636Y-87667279D02*
X40992493Y-87667279D01*
X40992493Y-87667279D02*
X41087731Y-87714898D01*
X41087731Y-87714898D02*
X41135350Y-87762517D01*
X41135350Y-87762517D02*
X41182969Y-87857755D01*
X41182969Y-87857755D02*
X41182969Y-88143469D01*
X41182969Y-88143469D02*
X41135350Y-88238707D01*
X41135350Y-88238707D02*
X41087731Y-88286327D01*
X41087731Y-88286327D02*
X40992493Y-88333946D01*
X40992493Y-88333946D02*
X40849636Y-88333946D01*
X41754398Y-88333946D02*
X41659160Y-88286327D01*
X41659160Y-88286327D02*
X41611541Y-88238707D01*
X41611541Y-88238707D02*
X41563922Y-88143469D01*
X41563922Y-88143469D02*
X41563922Y-87857755D01*
X41563922Y-87857755D02*
X41611541Y-87762517D01*
X41611541Y-87762517D02*
X41659160Y-87714898D01*
X41659160Y-87714898D02*
X41754398Y-87667279D01*
X41754398Y-87667279D02*
X41897255Y-87667279D01*
X41897255Y-87667279D02*
X41992493Y-87714898D01*
X41992493Y-87714898D02*
X42040112Y-87762517D01*
X42040112Y-87762517D02*
X42087731Y-87857755D01*
X42087731Y-87857755D02*
X42087731Y-88143469D01*
X42087731Y-88143469D02*
X42040112Y-88238707D01*
X42040112Y-88238707D02*
X41992493Y-88286327D01*
X41992493Y-88286327D02*
X41897255Y-88333946D01*
X41897255Y-88333946D02*
X41754398Y-88333946D01*
X42373446Y-87667279D02*
X42754398Y-87667279D01*
X42516303Y-87333946D02*
X42516303Y-88191088D01*
X42516303Y-88191088D02*
X42563922Y-88286327D01*
X42563922Y-88286327D02*
X42659160Y-88333946D01*
X42659160Y-88333946D02*
X42754398Y-88333946D01*
D10*
X57427257Y-99188901D02*
X57355828Y-99331759D01*
X57355828Y-99331759D02*
X57355828Y-99546044D01*
X57355828Y-99546044D02*
X57427257Y-99760330D01*
X57427257Y-99760330D02*
X57570114Y-99903187D01*
X57570114Y-99903187D02*
X57712971Y-99974616D01*
X57712971Y-99974616D02*
X57998685Y-100046044D01*
X57998685Y-100046044D02*
X58212971Y-100046044D01*
X58212971Y-100046044D02*
X58498685Y-99974616D01*
X58498685Y-99974616D02*
X58641542Y-99903187D01*
X58641542Y-99903187D02*
X58784400Y-99760330D01*
X58784400Y-99760330D02*
X58855828Y-99546044D01*
X58855828Y-99546044D02*
X58855828Y-99403187D01*
X58855828Y-99403187D02*
X58784400Y-99188901D01*
X58784400Y-99188901D02*
X58712971Y-99117473D01*
X58712971Y-99117473D02*
X58212971Y-99117473D01*
X58212971Y-99117473D02*
X58212971Y-99403187D01*
X58855828Y-98474616D02*
X57355828Y-98474616D01*
X57355828Y-98474616D02*
X58855828Y-97617473D01*
X58855828Y-97617473D02*
X57355828Y-97617473D01*
X58855828Y-96903187D02*
X57355828Y-96903187D01*
X57355828Y-96903187D02*
X57355828Y-96546044D01*
X57355828Y-96546044D02*
X57427257Y-96331758D01*
X57427257Y-96331758D02*
X57570114Y-96188901D01*
X57570114Y-96188901D02*
X57712971Y-96117472D01*
X57712971Y-96117472D02*
X57998685Y-96046044D01*
X57998685Y-96046044D02*
X58212971Y-96046044D01*
X58212971Y-96046044D02*
X58498685Y-96117472D01*
X58498685Y-96117472D02*
X58641542Y-96188901D01*
X58641542Y-96188901D02*
X58784400Y-96331758D01*
X58784400Y-96331758D02*
X58855828Y-96546044D01*
X58855828Y-96546044D02*
X58855828Y-96903187D01*
D12*
X66494819Y-88817221D02*
X65494819Y-88817221D01*
X65494819Y-88817221D02*
X65494819Y-88579126D01*
X65494819Y-88579126D02*
X65542438Y-88436269D01*
X65542438Y-88436269D02*
X65637676Y-88341031D01*
X65637676Y-88341031D02*
X65732914Y-88293412D01*
X65732914Y-88293412D02*
X65923390Y-88245793D01*
X65923390Y-88245793D02*
X66066247Y-88245793D01*
X66066247Y-88245793D02*
X66256723Y-88293412D01*
X66256723Y-88293412D02*
X66351961Y-88341031D01*
X66351961Y-88341031D02*
X66447200Y-88436269D01*
X66447200Y-88436269D02*
X66494819Y-88579126D01*
X66494819Y-88579126D02*
X66494819Y-88817221D01*
X65590057Y-87864840D02*
X65542438Y-87817221D01*
X65542438Y-87817221D02*
X65494819Y-87721983D01*
X65494819Y-87721983D02*
X65494819Y-87483888D01*
X65494819Y-87483888D02*
X65542438Y-87388650D01*
X65542438Y-87388650D02*
X65590057Y-87341031D01*
X65590057Y-87341031D02*
X65685295Y-87293412D01*
X65685295Y-87293412D02*
X65780533Y-87293412D01*
X65780533Y-87293412D02*
X65923390Y-87341031D01*
X65923390Y-87341031D02*
X66494819Y-87912459D01*
X66494819Y-87912459D02*
X66494819Y-87293412D01*
X45444580Y-87995793D02*
X45492200Y-88043412D01*
X45492200Y-88043412D02*
X45539819Y-88186269D01*
X45539819Y-88186269D02*
X45539819Y-88281507D01*
X45539819Y-88281507D02*
X45492200Y-88424364D01*
X45492200Y-88424364D02*
X45396961Y-88519602D01*
X45396961Y-88519602D02*
X45301723Y-88567221D01*
X45301723Y-88567221D02*
X45111247Y-88614840D01*
X45111247Y-88614840D02*
X44968390Y-88614840D01*
X44968390Y-88614840D02*
X44777914Y-88567221D01*
X44777914Y-88567221D02*
X44682676Y-88519602D01*
X44682676Y-88519602D02*
X44587438Y-88424364D01*
X44587438Y-88424364D02*
X44539819Y-88281507D01*
X44539819Y-88281507D02*
X44539819Y-88186269D01*
X44539819Y-88186269D02*
X44587438Y-88043412D01*
X44587438Y-88043412D02*
X44635057Y-87995793D01*
X44539819Y-87091031D02*
X44539819Y-87567221D01*
X44539819Y-87567221D02*
X45016009Y-87614840D01*
X45016009Y-87614840D02*
X44968390Y-87567221D01*
X44968390Y-87567221D02*
X44920771Y-87471983D01*
X44920771Y-87471983D02*
X44920771Y-87233888D01*
X44920771Y-87233888D02*
X44968390Y-87138650D01*
X44968390Y-87138650D02*
X45016009Y-87091031D01*
X45016009Y-87091031D02*
X45111247Y-87043412D01*
X45111247Y-87043412D02*
X45349342Y-87043412D01*
X45349342Y-87043412D02*
X45444580Y-87091031D01*
X45444580Y-87091031D02*
X45492200Y-87138650D01*
X45492200Y-87138650D02*
X45539819Y-87233888D01*
X45539819Y-87233888D02*
X45539819Y-87471983D01*
X45539819Y-87471983D02*
X45492200Y-87567221D01*
X45492200Y-87567221D02*
X45444580Y-87614840D01*
X49889580Y-93825793D02*
X49937200Y-93873412D01*
X49937200Y-93873412D02*
X49984819Y-94016269D01*
X49984819Y-94016269D02*
X49984819Y-94111507D01*
X49984819Y-94111507D02*
X49937200Y-94254364D01*
X49937200Y-94254364D02*
X49841961Y-94349602D01*
X49841961Y-94349602D02*
X49746723Y-94397221D01*
X49746723Y-94397221D02*
X49556247Y-94444840D01*
X49556247Y-94444840D02*
X49413390Y-94444840D01*
X49413390Y-94444840D02*
X49222914Y-94397221D01*
X49222914Y-94397221D02*
X49127676Y-94349602D01*
X49127676Y-94349602D02*
X49032438Y-94254364D01*
X49032438Y-94254364D02*
X48984819Y-94111507D01*
X48984819Y-94111507D02*
X48984819Y-94016269D01*
X48984819Y-94016269D02*
X49032438Y-93873412D01*
X49032438Y-93873412D02*
X49080057Y-93825793D01*
X49984819Y-92825793D02*
X49508628Y-93159126D01*
X49984819Y-93397221D02*
X48984819Y-93397221D01*
X48984819Y-93397221D02*
X48984819Y-93016269D01*
X48984819Y-93016269D02*
X49032438Y-92921031D01*
X49032438Y-92921031D02*
X49080057Y-92873412D01*
X49080057Y-92873412D02*
X49175295Y-92825793D01*
X49175295Y-92825793D02*
X49318152Y-92825793D01*
X49318152Y-92825793D02*
X49413390Y-92873412D01*
X49413390Y-92873412D02*
X49461009Y-92921031D01*
X49461009Y-92921031D02*
X49508628Y-93016269D01*
X49508628Y-93016269D02*
X49508628Y-93397221D01*
X48984819Y-92492459D02*
X48984819Y-91873412D01*
X48984819Y-91873412D02*
X49365771Y-92206745D01*
X49365771Y-92206745D02*
X49365771Y-92063888D01*
X49365771Y-92063888D02*
X49413390Y-91968650D01*
X49413390Y-91968650D02*
X49461009Y-91921031D01*
X49461009Y-91921031D02*
X49556247Y-91873412D01*
X49556247Y-91873412D02*
X49794342Y-91873412D01*
X49794342Y-91873412D02*
X49889580Y-91921031D01*
X49889580Y-91921031D02*
X49937200Y-91968650D01*
X49937200Y-91968650D02*
X49984819Y-92063888D01*
X49984819Y-92063888D02*
X49984819Y-92349602D01*
X49984819Y-92349602D02*
X49937200Y-92444840D01*
X49937200Y-92444840D02*
X49889580Y-92492459D01*
X50889819Y-91072526D02*
X51127914Y-91072526D01*
X51032676Y-91310621D02*
X51127914Y-91072526D01*
X51127914Y-91072526D02*
X51032676Y-90834431D01*
X51318390Y-91215383D02*
X51127914Y-91072526D01*
X51127914Y-91072526D02*
X51318390Y-90929669D01*
X78694642Y-97808946D02*
X78361309Y-97332755D01*
X78123214Y-97808946D02*
X78123214Y-96808946D01*
X78123214Y-96808946D02*
X78504166Y-96808946D01*
X78504166Y-96808946D02*
X78599404Y-96856565D01*
X78599404Y-96856565D02*
X78647023Y-96904184D01*
X78647023Y-96904184D02*
X78694642Y-96999422D01*
X78694642Y-96999422D02*
X78694642Y-97142279D01*
X78694642Y-97142279D02*
X78647023Y-97237517D01*
X78647023Y-97237517D02*
X78599404Y-97285136D01*
X78599404Y-97285136D02*
X78504166Y-97332755D01*
X78504166Y-97332755D02*
X78123214Y-97332755D01*
X79075595Y-96904184D02*
X79123214Y-96856565D01*
X79123214Y-96856565D02*
X79218452Y-96808946D01*
X79218452Y-96808946D02*
X79456547Y-96808946D01*
X79456547Y-96808946D02*
X79551785Y-96856565D01*
X79551785Y-96856565D02*
X79599404Y-96904184D01*
X79599404Y-96904184D02*
X79647023Y-96999422D01*
X79647023Y-96999422D02*
X79647023Y-97094660D01*
X79647023Y-97094660D02*
X79599404Y-97237517D01*
X79599404Y-97237517D02*
X79027976Y-97808946D01*
X79027976Y-97808946D02*
X79647023Y-97808946D01*
X79980357Y-96808946D02*
X80599404Y-96808946D01*
X80599404Y-96808946D02*
X80266071Y-97189898D01*
X80266071Y-97189898D02*
X80408928Y-97189898D01*
X80408928Y-97189898D02*
X80504166Y-97237517D01*
X80504166Y-97237517D02*
X80551785Y-97285136D01*
X80551785Y-97285136D02*
X80599404Y-97380374D01*
X80599404Y-97380374D02*
X80599404Y-97618469D01*
X80599404Y-97618469D02*
X80551785Y-97713707D01*
X80551785Y-97713707D02*
X80504166Y-97761327D01*
X80504166Y-97761327D02*
X80408928Y-97808946D01*
X80408928Y-97808946D02*
X80123214Y-97808946D01*
X80123214Y-97808946D02*
X80027976Y-97761327D01*
X80027976Y-97761327D02*
X79980357Y-97713707D01*
X105918095Y-83883946D02*
X105918095Y-84693469D01*
X105918095Y-84693469D02*
X105965714Y-84788707D01*
X105965714Y-84788707D02*
X106013333Y-84836327D01*
X106013333Y-84836327D02*
X106108571Y-84883946D01*
X106108571Y-84883946D02*
X106299047Y-84883946D01*
X106299047Y-84883946D02*
X106394285Y-84836327D01*
X106394285Y-84836327D02*
X106441904Y-84788707D01*
X106441904Y-84788707D02*
X106489523Y-84693469D01*
X106489523Y-84693469D02*
X106489523Y-83883946D01*
X107394285Y-83883946D02*
X107203809Y-83883946D01*
X107203809Y-83883946D02*
X107108571Y-83931565D01*
X107108571Y-83931565D02*
X107060952Y-83979184D01*
X107060952Y-83979184D02*
X106965714Y-84122041D01*
X106965714Y-84122041D02*
X106918095Y-84312517D01*
X106918095Y-84312517D02*
X106918095Y-84693469D01*
X106918095Y-84693469D02*
X106965714Y-84788707D01*
X106965714Y-84788707D02*
X107013333Y-84836327D01*
X107013333Y-84836327D02*
X107108571Y-84883946D01*
X107108571Y-84883946D02*
X107299047Y-84883946D01*
X107299047Y-84883946D02*
X107394285Y-84836327D01*
X107394285Y-84836327D02*
X107441904Y-84788707D01*
X107441904Y-84788707D02*
X107489523Y-84693469D01*
X107489523Y-84693469D02*
X107489523Y-84455374D01*
X107489523Y-84455374D02*
X107441904Y-84360136D01*
X107441904Y-84360136D02*
X107394285Y-84312517D01*
X107394285Y-84312517D02*
X107299047Y-84264898D01*
X107299047Y-84264898D02*
X107108571Y-84264898D01*
X107108571Y-84264898D02*
X107013333Y-84312517D01*
X107013333Y-84312517D02*
X106965714Y-84360136D01*
X106965714Y-84360136D02*
X106918095Y-84455374D01*
X72294761Y-95364184D02*
X72199523Y-95316565D01*
X72199523Y-95316565D02*
X72104285Y-95221327D01*
X72104285Y-95221327D02*
X71961428Y-95078469D01*
X71961428Y-95078469D02*
X71866190Y-95030850D01*
X71866190Y-95030850D02*
X71770952Y-95030850D01*
X71818571Y-95268946D02*
X71723333Y-95221327D01*
X71723333Y-95221327D02*
X71628095Y-95126088D01*
X71628095Y-95126088D02*
X71580476Y-94935612D01*
X71580476Y-94935612D02*
X71580476Y-94602279D01*
X71580476Y-94602279D02*
X71628095Y-94411803D01*
X71628095Y-94411803D02*
X71723333Y-94316565D01*
X71723333Y-94316565D02*
X71818571Y-94268946D01*
X71818571Y-94268946D02*
X72009047Y-94268946D01*
X72009047Y-94268946D02*
X72104285Y-94316565D01*
X72104285Y-94316565D02*
X72199523Y-94411803D01*
X72199523Y-94411803D02*
X72247142Y-94602279D01*
X72247142Y-94602279D02*
X72247142Y-94935612D01*
X72247142Y-94935612D02*
X72199523Y-95126088D01*
X72199523Y-95126088D02*
X72104285Y-95221327D01*
X72104285Y-95221327D02*
X72009047Y-95268946D01*
X72009047Y-95268946D02*
X71818571Y-95268946D01*
X73104285Y-94602279D02*
X73104285Y-95268946D01*
X72866190Y-94221327D02*
X72628095Y-94935612D01*
X72628095Y-94935612D02*
X73247142Y-94935612D01*
X63954819Y-88245793D02*
X63478628Y-88579126D01*
X63954819Y-88817221D02*
X62954819Y-88817221D01*
X62954819Y-88817221D02*
X62954819Y-88436269D01*
X62954819Y-88436269D02*
X63002438Y-88341031D01*
X63002438Y-88341031D02*
X63050057Y-88293412D01*
X63050057Y-88293412D02*
X63145295Y-88245793D01*
X63145295Y-88245793D02*
X63288152Y-88245793D01*
X63288152Y-88245793D02*
X63383390Y-88293412D01*
X63383390Y-88293412D02*
X63431009Y-88341031D01*
X63431009Y-88341031D02*
X63478628Y-88436269D01*
X63478628Y-88436269D02*
X63478628Y-88817221D01*
X62954819Y-87912459D02*
X62954819Y-87245793D01*
X62954819Y-87245793D02*
X63954819Y-87674364D01*
X62589580Y-88245793D02*
X62637200Y-88293412D01*
X62637200Y-88293412D02*
X62684819Y-88436269D01*
X62684819Y-88436269D02*
X62684819Y-88531507D01*
X62684819Y-88531507D02*
X62637200Y-88674364D01*
X62637200Y-88674364D02*
X62541961Y-88769602D01*
X62541961Y-88769602D02*
X62446723Y-88817221D01*
X62446723Y-88817221D02*
X62256247Y-88864840D01*
X62256247Y-88864840D02*
X62113390Y-88864840D01*
X62113390Y-88864840D02*
X61922914Y-88817221D01*
X61922914Y-88817221D02*
X61827676Y-88769602D01*
X61827676Y-88769602D02*
X61732438Y-88674364D01*
X61732438Y-88674364D02*
X61684819Y-88531507D01*
X61684819Y-88531507D02*
X61684819Y-88436269D01*
X61684819Y-88436269D02*
X61732438Y-88293412D01*
X61732438Y-88293412D02*
X61780057Y-88245793D01*
X61780057Y-87864840D02*
X61732438Y-87817221D01*
X61732438Y-87817221D02*
X61684819Y-87721983D01*
X61684819Y-87721983D02*
X61684819Y-87483888D01*
X61684819Y-87483888D02*
X61732438Y-87388650D01*
X61732438Y-87388650D02*
X61780057Y-87341031D01*
X61780057Y-87341031D02*
X61875295Y-87293412D01*
X61875295Y-87293412D02*
X61970533Y-87293412D01*
X61970533Y-87293412D02*
X62113390Y-87341031D01*
X62113390Y-87341031D02*
X62684819Y-87912459D01*
X62684819Y-87912459D02*
X62684819Y-87293412D01*
X54483095Y-72678946D02*
X54483095Y-73488469D01*
X54483095Y-73488469D02*
X54530714Y-73583707D01*
X54530714Y-73583707D02*
X54578333Y-73631327D01*
X54578333Y-73631327D02*
X54673571Y-73678946D01*
X54673571Y-73678946D02*
X54864047Y-73678946D01*
X54864047Y-73678946D02*
X54959285Y-73631327D01*
X54959285Y-73631327D02*
X55006904Y-73583707D01*
X55006904Y-73583707D02*
X55054523Y-73488469D01*
X55054523Y-73488469D02*
X55054523Y-72678946D01*
X56054523Y-73678946D02*
X55483095Y-73678946D01*
X55768809Y-73678946D02*
X55768809Y-72678946D01*
X55768809Y-72678946D02*
X55673571Y-72821803D01*
X55673571Y-72821803D02*
X55578333Y-72917041D01*
X55578333Y-72917041D02*
X55483095Y-72964660D01*
X56515000Y-72412946D02*
X56515000Y-72651041D01*
X56276905Y-72555803D02*
X56515000Y-72651041D01*
X56515000Y-72651041D02*
X56753095Y-72555803D01*
X56372143Y-72841517D02*
X56515000Y-72651041D01*
X56515000Y-72651041D02*
X56657857Y-72841517D01*
X72294761Y-87744184D02*
X72199523Y-87696565D01*
X72199523Y-87696565D02*
X72104285Y-87601327D01*
X72104285Y-87601327D02*
X71961428Y-87458469D01*
X71961428Y-87458469D02*
X71866190Y-87410850D01*
X71866190Y-87410850D02*
X71770952Y-87410850D01*
X71818571Y-87648946D02*
X71723333Y-87601327D01*
X71723333Y-87601327D02*
X71628095Y-87506088D01*
X71628095Y-87506088D02*
X71580476Y-87315612D01*
X71580476Y-87315612D02*
X71580476Y-86982279D01*
X71580476Y-86982279D02*
X71628095Y-86791803D01*
X71628095Y-86791803D02*
X71723333Y-86696565D01*
X71723333Y-86696565D02*
X71818571Y-86648946D01*
X71818571Y-86648946D02*
X72009047Y-86648946D01*
X72009047Y-86648946D02*
X72104285Y-86696565D01*
X72104285Y-86696565D02*
X72199523Y-86791803D01*
X72199523Y-86791803D02*
X72247142Y-86982279D01*
X72247142Y-86982279D02*
X72247142Y-87315612D01*
X72247142Y-87315612D02*
X72199523Y-87506088D01*
X72199523Y-87506088D02*
X72104285Y-87601327D01*
X72104285Y-87601327D02*
X72009047Y-87648946D01*
X72009047Y-87648946D02*
X71818571Y-87648946D01*
X72628095Y-86744184D02*
X72675714Y-86696565D01*
X72675714Y-86696565D02*
X72770952Y-86648946D01*
X72770952Y-86648946D02*
X73009047Y-86648946D01*
X73009047Y-86648946D02*
X73104285Y-86696565D01*
X73104285Y-86696565D02*
X73151904Y-86744184D01*
X73151904Y-86744184D02*
X73199523Y-86839422D01*
X73199523Y-86839422D02*
X73199523Y-86934660D01*
X73199523Y-86934660D02*
X73151904Y-87077517D01*
X73151904Y-87077517D02*
X72580476Y-87648946D01*
X72580476Y-87648946D02*
X73199523Y-87648946D01*
X78694642Y-86378946D02*
X78361309Y-85902755D01*
X78123214Y-86378946D02*
X78123214Y-85378946D01*
X78123214Y-85378946D02*
X78504166Y-85378946D01*
X78504166Y-85378946D02*
X78599404Y-85426565D01*
X78599404Y-85426565D02*
X78647023Y-85474184D01*
X78647023Y-85474184D02*
X78694642Y-85569422D01*
X78694642Y-85569422D02*
X78694642Y-85712279D01*
X78694642Y-85712279D02*
X78647023Y-85807517D01*
X78647023Y-85807517D02*
X78599404Y-85855136D01*
X78599404Y-85855136D02*
X78504166Y-85902755D01*
X78504166Y-85902755D02*
X78123214Y-85902755D01*
X79647023Y-86378946D02*
X79075595Y-86378946D01*
X79361309Y-86378946D02*
X79361309Y-85378946D01*
X79361309Y-85378946D02*
X79266071Y-85521803D01*
X79266071Y-85521803D02*
X79170833Y-85617041D01*
X79170833Y-85617041D02*
X79075595Y-85664660D01*
X80504166Y-85378946D02*
X80313690Y-85378946D01*
X80313690Y-85378946D02*
X80218452Y-85426565D01*
X80218452Y-85426565D02*
X80170833Y-85474184D01*
X80170833Y-85474184D02*
X80075595Y-85617041D01*
X80075595Y-85617041D02*
X80027976Y-85807517D01*
X80027976Y-85807517D02*
X80027976Y-86188469D01*
X80027976Y-86188469D02*
X80075595Y-86283707D01*
X80075595Y-86283707D02*
X80123214Y-86331327D01*
X80123214Y-86331327D02*
X80218452Y-86378946D01*
X80218452Y-86378946D02*
X80408928Y-86378946D01*
X80408928Y-86378946D02*
X80504166Y-86331327D01*
X80504166Y-86331327D02*
X80551785Y-86283707D01*
X80551785Y-86283707D02*
X80599404Y-86188469D01*
X80599404Y-86188469D02*
X80599404Y-85950374D01*
X80599404Y-85950374D02*
X80551785Y-85855136D01*
X80551785Y-85855136D02*
X80504166Y-85807517D01*
X80504166Y-85807517D02*
X80408928Y-85759898D01*
X80408928Y-85759898D02*
X80218452Y-85759898D01*
X80218452Y-85759898D02*
X80123214Y-85807517D01*
X80123214Y-85807517D02*
X80075595Y-85855136D01*
X80075595Y-85855136D02*
X80027976Y-85950374D01*
X71074642Y-92828946D02*
X70741309Y-92352755D01*
X70503214Y-92828946D02*
X70503214Y-91828946D01*
X70503214Y-91828946D02*
X70884166Y-91828946D01*
X70884166Y-91828946D02*
X70979404Y-91876565D01*
X70979404Y-91876565D02*
X71027023Y-91924184D01*
X71027023Y-91924184D02*
X71074642Y-92019422D01*
X71074642Y-92019422D02*
X71074642Y-92162279D01*
X71074642Y-92162279D02*
X71027023Y-92257517D01*
X71027023Y-92257517D02*
X70979404Y-92305136D01*
X70979404Y-92305136D02*
X70884166Y-92352755D01*
X70884166Y-92352755D02*
X70503214Y-92352755D01*
X71455595Y-91924184D02*
X71503214Y-91876565D01*
X71503214Y-91876565D02*
X71598452Y-91828946D01*
X71598452Y-91828946D02*
X71836547Y-91828946D01*
X71836547Y-91828946D02*
X71931785Y-91876565D01*
X71931785Y-91876565D02*
X71979404Y-91924184D01*
X71979404Y-91924184D02*
X72027023Y-92019422D01*
X72027023Y-92019422D02*
X72027023Y-92114660D01*
X72027023Y-92114660D02*
X71979404Y-92257517D01*
X71979404Y-92257517D02*
X71407976Y-92828946D01*
X71407976Y-92828946D02*
X72027023Y-92828946D01*
X72884166Y-92162279D02*
X72884166Y-92828946D01*
X72646071Y-91781327D02*
X72407976Y-92495612D01*
X72407976Y-92495612D02*
X73027023Y-92495612D01*
X71149642Y-96538946D02*
X70816309Y-96062755D01*
X70578214Y-96538946D02*
X70578214Y-95538946D01*
X70578214Y-95538946D02*
X70959166Y-95538946D01*
X70959166Y-95538946D02*
X71054404Y-95586565D01*
X71054404Y-95586565D02*
X71102023Y-95634184D01*
X71102023Y-95634184D02*
X71149642Y-95729422D01*
X71149642Y-95729422D02*
X71149642Y-95872279D01*
X71149642Y-95872279D02*
X71102023Y-95967517D01*
X71102023Y-95967517D02*
X71054404Y-96015136D01*
X71054404Y-96015136D02*
X70959166Y-96062755D01*
X70959166Y-96062755D02*
X70578214Y-96062755D01*
X71530595Y-95634184D02*
X71578214Y-95586565D01*
X71578214Y-95586565D02*
X71673452Y-95538946D01*
X71673452Y-95538946D02*
X71911547Y-95538946D01*
X71911547Y-95538946D02*
X72006785Y-95586565D01*
X72006785Y-95586565D02*
X72054404Y-95634184D01*
X72054404Y-95634184D02*
X72102023Y-95729422D01*
X72102023Y-95729422D02*
X72102023Y-95824660D01*
X72102023Y-95824660D02*
X72054404Y-95967517D01*
X72054404Y-95967517D02*
X71482976Y-96538946D01*
X71482976Y-96538946D02*
X72102023Y-96538946D01*
X73006785Y-95538946D02*
X72530595Y-95538946D01*
X72530595Y-95538946D02*
X72482976Y-96015136D01*
X72482976Y-96015136D02*
X72530595Y-95967517D01*
X72530595Y-95967517D02*
X72625833Y-95919898D01*
X72625833Y-95919898D02*
X72863928Y-95919898D01*
X72863928Y-95919898D02*
X72959166Y-95967517D01*
X72959166Y-95967517D02*
X73006785Y-96015136D01*
X73006785Y-96015136D02*
X73054404Y-96110374D01*
X73054404Y-96110374D02*
X73054404Y-96348469D01*
X73054404Y-96348469D02*
X73006785Y-96443707D01*
X73006785Y-96443707D02*
X72959166Y-96491327D01*
X72959166Y-96491327D02*
X72863928Y-96538946D01*
X72863928Y-96538946D02*
X72625833Y-96538946D01*
X72625833Y-96538946D02*
X72530595Y-96491327D01*
X72530595Y-96491327D02*
X72482976Y-96443707D01*
X71149642Y-89018946D02*
X70816309Y-88542755D01*
X70578214Y-89018946D02*
X70578214Y-88018946D01*
X70578214Y-88018946D02*
X70959166Y-88018946D01*
X70959166Y-88018946D02*
X71054404Y-88066565D01*
X71054404Y-88066565D02*
X71102023Y-88114184D01*
X71102023Y-88114184D02*
X71149642Y-88209422D01*
X71149642Y-88209422D02*
X71149642Y-88352279D01*
X71149642Y-88352279D02*
X71102023Y-88447517D01*
X71102023Y-88447517D02*
X71054404Y-88495136D01*
X71054404Y-88495136D02*
X70959166Y-88542755D01*
X70959166Y-88542755D02*
X70578214Y-88542755D01*
X71530595Y-88114184D02*
X71578214Y-88066565D01*
X71578214Y-88066565D02*
X71673452Y-88018946D01*
X71673452Y-88018946D02*
X71911547Y-88018946D01*
X71911547Y-88018946D02*
X72006785Y-88066565D01*
X72006785Y-88066565D02*
X72054404Y-88114184D01*
X72054404Y-88114184D02*
X72102023Y-88209422D01*
X72102023Y-88209422D02*
X72102023Y-88304660D01*
X72102023Y-88304660D02*
X72054404Y-88447517D01*
X72054404Y-88447517D02*
X71482976Y-89018946D01*
X71482976Y-89018946D02*
X72102023Y-89018946D01*
X72721071Y-88018946D02*
X72816309Y-88018946D01*
X72816309Y-88018946D02*
X72911547Y-88066565D01*
X72911547Y-88066565D02*
X72959166Y-88114184D01*
X72959166Y-88114184D02*
X73006785Y-88209422D01*
X73006785Y-88209422D02*
X73054404Y-88399898D01*
X73054404Y-88399898D02*
X73054404Y-88637993D01*
X73054404Y-88637993D02*
X73006785Y-88828469D01*
X73006785Y-88828469D02*
X72959166Y-88923707D01*
X72959166Y-88923707D02*
X72911547Y-88971327D01*
X72911547Y-88971327D02*
X72816309Y-89018946D01*
X72816309Y-89018946D02*
X72721071Y-89018946D01*
X72721071Y-89018946D02*
X72625833Y-88971327D01*
X72625833Y-88971327D02*
X72578214Y-88923707D01*
X72578214Y-88923707D02*
X72530595Y-88828469D01*
X72530595Y-88828469D02*
X72482976Y-88637993D01*
X72482976Y-88637993D02*
X72482976Y-88399898D01*
X72482976Y-88399898D02*
X72530595Y-88209422D01*
X72530595Y-88209422D02*
X72578214Y-88114184D01*
X72578214Y-88114184D02*
X72625833Y-88066565D01*
X72625833Y-88066565D02*
X72721071Y-88018946D01*
X72294761Y-83934184D02*
X72199523Y-83886565D01*
X72199523Y-83886565D02*
X72104285Y-83791327D01*
X72104285Y-83791327D02*
X71961428Y-83648469D01*
X71961428Y-83648469D02*
X71866190Y-83600850D01*
X71866190Y-83600850D02*
X71770952Y-83600850D01*
X71818571Y-83838946D02*
X71723333Y-83791327D01*
X71723333Y-83791327D02*
X71628095Y-83696088D01*
X71628095Y-83696088D02*
X71580476Y-83505612D01*
X71580476Y-83505612D02*
X71580476Y-83172279D01*
X71580476Y-83172279D02*
X71628095Y-82981803D01*
X71628095Y-82981803D02*
X71723333Y-82886565D01*
X71723333Y-82886565D02*
X71818571Y-82838946D01*
X71818571Y-82838946D02*
X72009047Y-82838946D01*
X72009047Y-82838946D02*
X72104285Y-82886565D01*
X72104285Y-82886565D02*
X72199523Y-82981803D01*
X72199523Y-82981803D02*
X72247142Y-83172279D01*
X72247142Y-83172279D02*
X72247142Y-83505612D01*
X72247142Y-83505612D02*
X72199523Y-83696088D01*
X72199523Y-83696088D02*
X72104285Y-83791327D01*
X72104285Y-83791327D02*
X72009047Y-83838946D01*
X72009047Y-83838946D02*
X71818571Y-83838946D01*
X73199523Y-83838946D02*
X72628095Y-83838946D01*
X72913809Y-83838946D02*
X72913809Y-82838946D01*
X72913809Y-82838946D02*
X72818571Y-82981803D01*
X72818571Y-82981803D02*
X72723333Y-83077041D01*
X72723333Y-83077041D02*
X72628095Y-83124660D01*
X65224819Y-88283293D02*
X64748628Y-88616626D01*
X65224819Y-88854721D02*
X64224819Y-88854721D01*
X64224819Y-88854721D02*
X64224819Y-88473769D01*
X64224819Y-88473769D02*
X64272438Y-88378531D01*
X64272438Y-88378531D02*
X64320057Y-88330912D01*
X64320057Y-88330912D02*
X64415295Y-88283293D01*
X64415295Y-88283293D02*
X64558152Y-88283293D01*
X64558152Y-88283293D02*
X64653390Y-88330912D01*
X64653390Y-88330912D02*
X64701009Y-88378531D01*
X64701009Y-88378531D02*
X64748628Y-88473769D01*
X64748628Y-88473769D02*
X64748628Y-88854721D01*
X64558152Y-87426150D02*
X65224819Y-87426150D01*
X64177200Y-87664245D02*
X64891485Y-87902340D01*
X64891485Y-87902340D02*
X64891485Y-87283293D01*
X71074642Y-85208946D02*
X70741309Y-84732755D01*
X70503214Y-85208946D02*
X70503214Y-84208946D01*
X70503214Y-84208946D02*
X70884166Y-84208946D01*
X70884166Y-84208946D02*
X70979404Y-84256565D01*
X70979404Y-84256565D02*
X71027023Y-84304184D01*
X71027023Y-84304184D02*
X71074642Y-84399422D01*
X71074642Y-84399422D02*
X71074642Y-84542279D01*
X71074642Y-84542279D02*
X71027023Y-84637517D01*
X71027023Y-84637517D02*
X70979404Y-84685136D01*
X70979404Y-84685136D02*
X70884166Y-84732755D01*
X70884166Y-84732755D02*
X70503214Y-84732755D01*
X72027023Y-85208946D02*
X71455595Y-85208946D01*
X71741309Y-85208946D02*
X71741309Y-84208946D01*
X71741309Y-84208946D02*
X71646071Y-84351803D01*
X71646071Y-84351803D02*
X71550833Y-84447041D01*
X71550833Y-84447041D02*
X71455595Y-84494660D01*
X72503214Y-85208946D02*
X72693690Y-85208946D01*
X72693690Y-85208946D02*
X72788928Y-85161327D01*
X72788928Y-85161327D02*
X72836547Y-85113707D01*
X72836547Y-85113707D02*
X72931785Y-84970850D01*
X72931785Y-84970850D02*
X72979404Y-84780374D01*
X72979404Y-84780374D02*
X72979404Y-84399422D01*
X72979404Y-84399422D02*
X72931785Y-84304184D01*
X72931785Y-84304184D02*
X72884166Y-84256565D01*
X72884166Y-84256565D02*
X72788928Y-84208946D01*
X72788928Y-84208946D02*
X72598452Y-84208946D01*
X72598452Y-84208946D02*
X72503214Y-84256565D01*
X72503214Y-84256565D02*
X72455595Y-84304184D01*
X72455595Y-84304184D02*
X72407976Y-84399422D01*
X72407976Y-84399422D02*
X72407976Y-84637517D01*
X72407976Y-84637517D02*
X72455595Y-84732755D01*
X72455595Y-84732755D02*
X72503214Y-84780374D01*
X72503214Y-84780374D02*
X72598452Y-84827993D01*
X72598452Y-84827993D02*
X72788928Y-84827993D01*
X72788928Y-84827993D02*
X72884166Y-84780374D01*
X72884166Y-84780374D02*
X72931785Y-84732755D01*
X72931785Y-84732755D02*
X72979404Y-84637517D01*
X76208095Y-73114819D02*
X76779523Y-73114819D01*
X76493809Y-74114819D02*
X76493809Y-73114819D01*
X77112857Y-74114819D02*
X77112857Y-73114819D01*
X77112857Y-73114819D02*
X77493809Y-73114819D01*
X77493809Y-73114819D02*
X77589047Y-73162438D01*
X77589047Y-73162438D02*
X77636666Y-73210057D01*
X77636666Y-73210057D02*
X77684285Y-73305295D01*
X77684285Y-73305295D02*
X77684285Y-73448152D01*
X77684285Y-73448152D02*
X77636666Y-73543390D01*
X77636666Y-73543390D02*
X77589047Y-73591009D01*
X77589047Y-73591009D02*
X77493809Y-73638628D01*
X77493809Y-73638628D02*
X77112857Y-73638628D01*
X78636666Y-74114819D02*
X78065238Y-74114819D01*
X78350952Y-74114819D02*
X78350952Y-73114819D01*
X78350952Y-73114819D02*
X78255714Y-73257676D01*
X78255714Y-73257676D02*
X78160476Y-73352914D01*
X78160476Y-73352914D02*
X78065238Y-73400533D01*
X78694642Y-90188946D02*
X78361309Y-89712755D01*
X78123214Y-90188946D02*
X78123214Y-89188946D01*
X78123214Y-89188946D02*
X78504166Y-89188946D01*
X78504166Y-89188946D02*
X78599404Y-89236565D01*
X78599404Y-89236565D02*
X78647023Y-89284184D01*
X78647023Y-89284184D02*
X78694642Y-89379422D01*
X78694642Y-89379422D02*
X78694642Y-89522279D01*
X78694642Y-89522279D02*
X78647023Y-89617517D01*
X78647023Y-89617517D02*
X78599404Y-89665136D01*
X78599404Y-89665136D02*
X78504166Y-89712755D01*
X78504166Y-89712755D02*
X78123214Y-89712755D01*
X79075595Y-89284184D02*
X79123214Y-89236565D01*
X79123214Y-89236565D02*
X79218452Y-89188946D01*
X79218452Y-89188946D02*
X79456547Y-89188946D01*
X79456547Y-89188946D02*
X79551785Y-89236565D01*
X79551785Y-89236565D02*
X79599404Y-89284184D01*
X79599404Y-89284184D02*
X79647023Y-89379422D01*
X79647023Y-89379422D02*
X79647023Y-89474660D01*
X79647023Y-89474660D02*
X79599404Y-89617517D01*
X79599404Y-89617517D02*
X79027976Y-90188946D01*
X79027976Y-90188946D02*
X79647023Y-90188946D01*
X80599404Y-90188946D02*
X80027976Y-90188946D01*
X80313690Y-90188946D02*
X80313690Y-89188946D01*
X80313690Y-89188946D02*
X80218452Y-89331803D01*
X80218452Y-89331803D02*
X80123214Y-89427041D01*
X80123214Y-89427041D02*
X80027976Y-89474660D01*
X63954819Y-93445793D02*
X63478628Y-93779126D01*
X63954819Y-94017221D02*
X62954819Y-94017221D01*
X62954819Y-94017221D02*
X62954819Y-93636269D01*
X62954819Y-93636269D02*
X63002438Y-93541031D01*
X63002438Y-93541031D02*
X63050057Y-93493412D01*
X63050057Y-93493412D02*
X63145295Y-93445793D01*
X63145295Y-93445793D02*
X63288152Y-93445793D01*
X63288152Y-93445793D02*
X63383390Y-93493412D01*
X63383390Y-93493412D02*
X63431009Y-93541031D01*
X63431009Y-93541031D02*
X63478628Y-93636269D01*
X63478628Y-93636269D02*
X63478628Y-94017221D01*
X63954819Y-92969602D02*
X63954819Y-92779126D01*
X63954819Y-92779126D02*
X63907200Y-92683888D01*
X63907200Y-92683888D02*
X63859580Y-92636269D01*
X63859580Y-92636269D02*
X63716723Y-92541031D01*
X63716723Y-92541031D02*
X63526247Y-92493412D01*
X63526247Y-92493412D02*
X63145295Y-92493412D01*
X63145295Y-92493412D02*
X63050057Y-92541031D01*
X63050057Y-92541031D02*
X63002438Y-92588650D01*
X63002438Y-92588650D02*
X62954819Y-92683888D01*
X62954819Y-92683888D02*
X62954819Y-92874364D01*
X62954819Y-92874364D02*
X63002438Y-92969602D01*
X63002438Y-92969602D02*
X63050057Y-93017221D01*
X63050057Y-93017221D02*
X63145295Y-93064840D01*
X63145295Y-93064840D02*
X63383390Y-93064840D01*
X63383390Y-93064840D02*
X63478628Y-93017221D01*
X63478628Y-93017221D02*
X63526247Y-92969602D01*
X63526247Y-92969602D02*
X63573866Y-92874364D01*
X63573866Y-92874364D02*
X63573866Y-92683888D01*
X63573866Y-92683888D02*
X63526247Y-92588650D01*
X63526247Y-92588650D02*
X63478628Y-92541031D01*
X63478628Y-92541031D02*
X63383390Y-92493412D01*
X52538333Y-75738707D02*
X52490714Y-75786327D01*
X52490714Y-75786327D02*
X52347857Y-75833946D01*
X52347857Y-75833946D02*
X52252619Y-75833946D01*
X52252619Y-75833946D02*
X52109762Y-75786327D01*
X52109762Y-75786327D02*
X52014524Y-75691088D01*
X52014524Y-75691088D02*
X51966905Y-75595850D01*
X51966905Y-75595850D02*
X51919286Y-75405374D01*
X51919286Y-75405374D02*
X51919286Y-75262517D01*
X51919286Y-75262517D02*
X51966905Y-75072041D01*
X51966905Y-75072041D02*
X52014524Y-74976803D01*
X52014524Y-74976803D02*
X52109762Y-74881565D01*
X52109762Y-74881565D02*
X52252619Y-74833946D01*
X52252619Y-74833946D02*
X52347857Y-74833946D01*
X52347857Y-74833946D02*
X52490714Y-74881565D01*
X52490714Y-74881565D02*
X52538333Y-74929184D01*
X53395476Y-74833946D02*
X53205000Y-74833946D01*
X53205000Y-74833946D02*
X53109762Y-74881565D01*
X53109762Y-74881565D02*
X53062143Y-74929184D01*
X53062143Y-74929184D02*
X52966905Y-75072041D01*
X52966905Y-75072041D02*
X52919286Y-75262517D01*
X52919286Y-75262517D02*
X52919286Y-75643469D01*
X52919286Y-75643469D02*
X52966905Y-75738707D01*
X52966905Y-75738707D02*
X53014524Y-75786327D01*
X53014524Y-75786327D02*
X53109762Y-75833946D01*
X53109762Y-75833946D02*
X53300238Y-75833946D01*
X53300238Y-75833946D02*
X53395476Y-75786327D01*
X53395476Y-75786327D02*
X53443095Y-75738707D01*
X53443095Y-75738707D02*
X53490714Y-75643469D01*
X53490714Y-75643469D02*
X53490714Y-75405374D01*
X53490714Y-75405374D02*
X53443095Y-75310136D01*
X53443095Y-75310136D02*
X53395476Y-75262517D01*
X53395476Y-75262517D02*
X53300238Y-75214898D01*
X53300238Y-75214898D02*
X53109762Y-75214898D01*
X53109762Y-75214898D02*
X53014524Y-75262517D01*
X53014524Y-75262517D02*
X52966905Y-75310136D01*
X52966905Y-75310136D02*
X52919286Y-75405374D01*
X82909580Y-102600793D02*
X82957200Y-102648412D01*
X82957200Y-102648412D02*
X83004819Y-102791269D01*
X83004819Y-102791269D02*
X83004819Y-102886507D01*
X83004819Y-102886507D02*
X82957200Y-103029364D01*
X82957200Y-103029364D02*
X82861961Y-103124602D01*
X82861961Y-103124602D02*
X82766723Y-103172221D01*
X82766723Y-103172221D02*
X82576247Y-103219840D01*
X82576247Y-103219840D02*
X82433390Y-103219840D01*
X82433390Y-103219840D02*
X82242914Y-103172221D01*
X82242914Y-103172221D02*
X82147676Y-103124602D01*
X82147676Y-103124602D02*
X82052438Y-103029364D01*
X82052438Y-103029364D02*
X82004819Y-102886507D01*
X82004819Y-102886507D02*
X82004819Y-102791269D01*
X82004819Y-102791269D02*
X82052438Y-102648412D01*
X82052438Y-102648412D02*
X82100057Y-102600793D01*
X82004819Y-102267459D02*
X82004819Y-101600793D01*
X82004819Y-101600793D02*
X83004819Y-102029364D01*
X46714580Y-87995793D02*
X46762200Y-88043412D01*
X46762200Y-88043412D02*
X46809819Y-88186269D01*
X46809819Y-88186269D02*
X46809819Y-88281507D01*
X46809819Y-88281507D02*
X46762200Y-88424364D01*
X46762200Y-88424364D02*
X46666961Y-88519602D01*
X46666961Y-88519602D02*
X46571723Y-88567221D01*
X46571723Y-88567221D02*
X46381247Y-88614840D01*
X46381247Y-88614840D02*
X46238390Y-88614840D01*
X46238390Y-88614840D02*
X46047914Y-88567221D01*
X46047914Y-88567221D02*
X45952676Y-88519602D01*
X45952676Y-88519602D02*
X45857438Y-88424364D01*
X45857438Y-88424364D02*
X45809819Y-88281507D01*
X45809819Y-88281507D02*
X45809819Y-88186269D01*
X45809819Y-88186269D02*
X45857438Y-88043412D01*
X45857438Y-88043412D02*
X45905057Y-87995793D01*
X46143152Y-87138650D02*
X46809819Y-87138650D01*
X45762200Y-87376745D02*
X46476485Y-87614840D01*
X46476485Y-87614840D02*
X46476485Y-86995793D01*
X65129580Y-93445793D02*
X65177200Y-93493412D01*
X65177200Y-93493412D02*
X65224819Y-93636269D01*
X65224819Y-93636269D02*
X65224819Y-93731507D01*
X65224819Y-93731507D02*
X65177200Y-93874364D01*
X65177200Y-93874364D02*
X65081961Y-93969602D01*
X65081961Y-93969602D02*
X64986723Y-94017221D01*
X64986723Y-94017221D02*
X64796247Y-94064840D01*
X64796247Y-94064840D02*
X64653390Y-94064840D01*
X64653390Y-94064840D02*
X64462914Y-94017221D01*
X64462914Y-94017221D02*
X64367676Y-93969602D01*
X64367676Y-93969602D02*
X64272438Y-93874364D01*
X64272438Y-93874364D02*
X64224819Y-93731507D01*
X64224819Y-93731507D02*
X64224819Y-93636269D01*
X64224819Y-93636269D02*
X64272438Y-93493412D01*
X64272438Y-93493412D02*
X64320057Y-93445793D01*
X64224819Y-93112459D02*
X64224819Y-92493412D01*
X64224819Y-92493412D02*
X64605771Y-92826745D01*
X64605771Y-92826745D02*
X64605771Y-92683888D01*
X64605771Y-92683888D02*
X64653390Y-92588650D01*
X64653390Y-92588650D02*
X64701009Y-92541031D01*
X64701009Y-92541031D02*
X64796247Y-92493412D01*
X64796247Y-92493412D02*
X65034342Y-92493412D01*
X65034342Y-92493412D02*
X65129580Y-92541031D01*
X65129580Y-92541031D02*
X65177200Y-92588650D01*
X65177200Y-92588650D02*
X65224819Y-92683888D01*
X65224819Y-92683888D02*
X65224819Y-92969602D01*
X65224819Y-92969602D02*
X65177200Y-93064840D01*
X65177200Y-93064840D02*
X65129580Y-93112459D01*
X67684024Y-88259003D02*
X67207833Y-88592336D01*
X67684024Y-88830431D02*
X66684024Y-88830431D01*
X66684024Y-88830431D02*
X66684024Y-88449479D01*
X66684024Y-88449479D02*
X66731643Y-88354241D01*
X66731643Y-88354241D02*
X66779262Y-88306622D01*
X66779262Y-88306622D02*
X66874500Y-88259003D01*
X66874500Y-88259003D02*
X67017357Y-88259003D01*
X67017357Y-88259003D02*
X67112595Y-88306622D01*
X67112595Y-88306622D02*
X67160214Y-88354241D01*
X67160214Y-88354241D02*
X67207833Y-88449479D01*
X67207833Y-88449479D02*
X67207833Y-88830431D01*
X66684024Y-87925669D02*
X66684024Y-87306622D01*
X66684024Y-87306622D02*
X67064976Y-87639955D01*
X67064976Y-87639955D02*
X67064976Y-87497098D01*
X67064976Y-87497098D02*
X67112595Y-87401860D01*
X67112595Y-87401860D02*
X67160214Y-87354241D01*
X67160214Y-87354241D02*
X67255452Y-87306622D01*
X67255452Y-87306622D02*
X67493547Y-87306622D01*
X67493547Y-87306622D02*
X67588785Y-87354241D01*
X67588785Y-87354241D02*
X67636405Y-87401860D01*
X67636405Y-87401860D02*
X67684024Y-87497098D01*
X67684024Y-87497098D02*
X67684024Y-87782812D01*
X67684024Y-87782812D02*
X67636405Y-87878050D01*
X67636405Y-87878050D02*
X67588785Y-87925669D01*
X102054819Y-97162857D02*
X101578628Y-97496190D01*
X102054819Y-97734285D02*
X101054819Y-97734285D01*
X101054819Y-97734285D02*
X101054819Y-97353333D01*
X101054819Y-97353333D02*
X101102438Y-97258095D01*
X101102438Y-97258095D02*
X101150057Y-97210476D01*
X101150057Y-97210476D02*
X101245295Y-97162857D01*
X101245295Y-97162857D02*
X101388152Y-97162857D01*
X101388152Y-97162857D02*
X101483390Y-97210476D01*
X101483390Y-97210476D02*
X101531009Y-97258095D01*
X101531009Y-97258095D02*
X101578628Y-97353333D01*
X101578628Y-97353333D02*
X101578628Y-97734285D01*
X102054819Y-96210476D02*
X102054819Y-96781904D01*
X102054819Y-96496190D02*
X101054819Y-96496190D01*
X101054819Y-96496190D02*
X101197676Y-96591428D01*
X101197676Y-96591428D02*
X101292914Y-96686666D01*
X101292914Y-96686666D02*
X101340533Y-96781904D01*
X101054819Y-95305714D02*
X101054819Y-95781904D01*
X101054819Y-95781904D02*
X101531009Y-95829523D01*
X101531009Y-95829523D02*
X101483390Y-95781904D01*
X101483390Y-95781904D02*
X101435771Y-95686666D01*
X101435771Y-95686666D02*
X101435771Y-95448571D01*
X101435771Y-95448571D02*
X101483390Y-95353333D01*
X101483390Y-95353333D02*
X101531009Y-95305714D01*
X101531009Y-95305714D02*
X101626247Y-95258095D01*
X101626247Y-95258095D02*
X101864342Y-95258095D01*
X101864342Y-95258095D02*
X101959580Y-95305714D01*
X101959580Y-95305714D02*
X102007200Y-95353333D01*
X102007200Y-95353333D02*
X102054819Y-95448571D01*
X102054819Y-95448571D02*
X102054819Y-95686666D01*
X102054819Y-95686666D02*
X102007200Y-95781904D01*
X102007200Y-95781904D02*
X101959580Y-95829523D01*
X72294761Y-99174184D02*
X72199523Y-99126565D01*
X72199523Y-99126565D02*
X72104285Y-99031327D01*
X72104285Y-99031327D02*
X71961428Y-98888469D01*
X71961428Y-98888469D02*
X71866190Y-98840850D01*
X71866190Y-98840850D02*
X71770952Y-98840850D01*
X71818571Y-99078946D02*
X71723333Y-99031327D01*
X71723333Y-99031327D02*
X71628095Y-98936088D01*
X71628095Y-98936088D02*
X71580476Y-98745612D01*
X71580476Y-98745612D02*
X71580476Y-98412279D01*
X71580476Y-98412279D02*
X71628095Y-98221803D01*
X71628095Y-98221803D02*
X71723333Y-98126565D01*
X71723333Y-98126565D02*
X71818571Y-98078946D01*
X71818571Y-98078946D02*
X72009047Y-98078946D01*
X72009047Y-98078946D02*
X72104285Y-98126565D01*
X72104285Y-98126565D02*
X72199523Y-98221803D01*
X72199523Y-98221803D02*
X72247142Y-98412279D01*
X72247142Y-98412279D02*
X72247142Y-98745612D01*
X72247142Y-98745612D02*
X72199523Y-98936088D01*
X72199523Y-98936088D02*
X72104285Y-99031327D01*
X72104285Y-99031327D02*
X72009047Y-99078946D01*
X72009047Y-99078946D02*
X71818571Y-99078946D01*
X73151904Y-98078946D02*
X72675714Y-98078946D01*
X72675714Y-98078946D02*
X72628095Y-98555136D01*
X72628095Y-98555136D02*
X72675714Y-98507517D01*
X72675714Y-98507517D02*
X72770952Y-98459898D01*
X72770952Y-98459898D02*
X73009047Y-98459898D01*
X73009047Y-98459898D02*
X73104285Y-98507517D01*
X73104285Y-98507517D02*
X73151904Y-98555136D01*
X73151904Y-98555136D02*
X73199523Y-98650374D01*
X73199523Y-98650374D02*
X73199523Y-98888469D01*
X73199523Y-98888469D02*
X73151904Y-98983707D01*
X73151904Y-98983707D02*
X73104285Y-99031327D01*
X73104285Y-99031327D02*
X73009047Y-99078946D01*
X73009047Y-99078946D02*
X72770952Y-99078946D01*
X72770952Y-99078946D02*
X72675714Y-99031327D01*
X72675714Y-99031327D02*
X72628095Y-98983707D01*
X46823333Y-80028946D02*
X46490000Y-79552755D01*
X46251905Y-80028946D02*
X46251905Y-79028946D01*
X46251905Y-79028946D02*
X46632857Y-79028946D01*
X46632857Y-79028946D02*
X46728095Y-79076565D01*
X46728095Y-79076565D02*
X46775714Y-79124184D01*
X46775714Y-79124184D02*
X46823333Y-79219422D01*
X46823333Y-79219422D02*
X46823333Y-79362279D01*
X46823333Y-79362279D02*
X46775714Y-79457517D01*
X46775714Y-79457517D02*
X46728095Y-79505136D01*
X46728095Y-79505136D02*
X46632857Y-79552755D01*
X46632857Y-79552755D02*
X46251905Y-79552755D01*
X47775714Y-80028946D02*
X47204286Y-80028946D01*
X47490000Y-80028946D02*
X47490000Y-79028946D01*
X47490000Y-79028946D02*
X47394762Y-79171803D01*
X47394762Y-79171803D02*
X47299524Y-79267041D01*
X47299524Y-79267041D02*
X47204286Y-79314660D01*
X129940222Y-74432299D02*
X129892603Y-74479919D01*
X129892603Y-74479919D02*
X129749746Y-74527538D01*
X129749746Y-74527538D02*
X129654508Y-74527538D01*
X129654508Y-74527538D02*
X129511651Y-74479919D01*
X129511651Y-74479919D02*
X129416413Y-74384680D01*
X129416413Y-74384680D02*
X129368794Y-74289442D01*
X129368794Y-74289442D02*
X129321175Y-74098966D01*
X129321175Y-74098966D02*
X129321175Y-73956109D01*
X129321175Y-73956109D02*
X129368794Y-73765633D01*
X129368794Y-73765633D02*
X129416413Y-73670395D01*
X129416413Y-73670395D02*
X129511651Y-73575157D01*
X129511651Y-73575157D02*
X129654508Y-73527538D01*
X129654508Y-73527538D02*
X129749746Y-73527538D01*
X129749746Y-73527538D02*
X129892603Y-73575157D01*
X129892603Y-73575157D02*
X129940222Y-73622776D01*
X130368794Y-74527538D02*
X130368794Y-73527538D01*
X130368794Y-73527538D02*
X130749746Y-73527538D01*
X130749746Y-73527538D02*
X130844984Y-73575157D01*
X130844984Y-73575157D02*
X130892603Y-73622776D01*
X130892603Y-73622776D02*
X130940222Y-73718014D01*
X130940222Y-73718014D02*
X130940222Y-73860871D01*
X130940222Y-73860871D02*
X130892603Y-73956109D01*
X130892603Y-73956109D02*
X130844984Y-74003728D01*
X130844984Y-74003728D02*
X130749746Y-74051347D01*
X130749746Y-74051347D02*
X130368794Y-74051347D01*
X131273556Y-73527538D02*
X131892603Y-73527538D01*
X131892603Y-73527538D02*
X131559270Y-73908490D01*
X131559270Y-73908490D02*
X131702127Y-73908490D01*
X131702127Y-73908490D02*
X131797365Y-73956109D01*
X131797365Y-73956109D02*
X131844984Y-74003728D01*
X131844984Y-74003728D02*
X131892603Y-74098966D01*
X131892603Y-74098966D02*
X131892603Y-74337061D01*
X131892603Y-74337061D02*
X131844984Y-74432299D01*
X131844984Y-74432299D02*
X131797365Y-74479919D01*
X131797365Y-74479919D02*
X131702127Y-74527538D01*
X131702127Y-74527538D02*
X131416413Y-74527538D01*
X131416413Y-74527538D02*
X131321175Y-74479919D01*
X131321175Y-74479919D02*
X131273556Y-74432299D01*
X46444819Y-82876031D02*
X47254342Y-82876031D01*
X47254342Y-82876031D02*
X47349580Y-82828412D01*
X47349580Y-82828412D02*
X47397200Y-82780793D01*
X47397200Y-82780793D02*
X47444819Y-82685555D01*
X47444819Y-82685555D02*
X47444819Y-82495079D01*
X47444819Y-82495079D02*
X47397200Y-82399841D01*
X47397200Y-82399841D02*
X47349580Y-82352222D01*
X47349580Y-82352222D02*
X47254342Y-82304603D01*
X47254342Y-82304603D02*
X46444819Y-82304603D01*
X46540057Y-81876031D02*
X46492438Y-81828412D01*
X46492438Y-81828412D02*
X46444819Y-81733174D01*
X46444819Y-81733174D02*
X46444819Y-81495079D01*
X46444819Y-81495079D02*
X46492438Y-81399841D01*
X46492438Y-81399841D02*
X46540057Y-81352222D01*
X46540057Y-81352222D02*
X46635295Y-81304603D01*
X46635295Y-81304603D02*
X46730533Y-81304603D01*
X46730533Y-81304603D02*
X46873390Y-81352222D01*
X46873390Y-81352222D02*
X47444819Y-81923650D01*
X47444819Y-81923650D02*
X47444819Y-81304603D01*
X43724819Y-95073531D02*
X44534342Y-95073531D01*
X44534342Y-95073531D02*
X44629580Y-95025912D01*
X44629580Y-95025912D02*
X44677200Y-94978293D01*
X44677200Y-94978293D02*
X44724819Y-94883055D01*
X44724819Y-94883055D02*
X44724819Y-94692579D01*
X44724819Y-94692579D02*
X44677200Y-94597341D01*
X44677200Y-94597341D02*
X44629580Y-94549722D01*
X44629580Y-94549722D02*
X44534342Y-94502103D01*
X44534342Y-94502103D02*
X43724819Y-94502103D01*
X43724819Y-94121150D02*
X43724819Y-93502103D01*
X43724819Y-93502103D02*
X44105771Y-93835436D01*
X44105771Y-93835436D02*
X44105771Y-93692579D01*
X44105771Y-93692579D02*
X44153390Y-93597341D01*
X44153390Y-93597341D02*
X44201009Y-93549722D01*
X44201009Y-93549722D02*
X44296247Y-93502103D01*
X44296247Y-93502103D02*
X44534342Y-93502103D01*
X44534342Y-93502103D02*
X44629580Y-93549722D01*
X44629580Y-93549722D02*
X44677200Y-93597341D01*
X44677200Y-93597341D02*
X44724819Y-93692579D01*
X44724819Y-93692579D02*
X44724819Y-93978293D01*
X44724819Y-93978293D02*
X44677200Y-94073531D01*
X44677200Y-94073531D02*
X44629580Y-94121150D01*
X72294761Y-91554184D02*
X72199523Y-91506565D01*
X72199523Y-91506565D02*
X72104285Y-91411327D01*
X72104285Y-91411327D02*
X71961428Y-91268469D01*
X71961428Y-91268469D02*
X71866190Y-91220850D01*
X71866190Y-91220850D02*
X71770952Y-91220850D01*
X71818571Y-91458946D02*
X71723333Y-91411327D01*
X71723333Y-91411327D02*
X71628095Y-91316088D01*
X71628095Y-91316088D02*
X71580476Y-91125612D01*
X71580476Y-91125612D02*
X71580476Y-90792279D01*
X71580476Y-90792279D02*
X71628095Y-90601803D01*
X71628095Y-90601803D02*
X71723333Y-90506565D01*
X71723333Y-90506565D02*
X71818571Y-90458946D01*
X71818571Y-90458946D02*
X72009047Y-90458946D01*
X72009047Y-90458946D02*
X72104285Y-90506565D01*
X72104285Y-90506565D02*
X72199523Y-90601803D01*
X72199523Y-90601803D02*
X72247142Y-90792279D01*
X72247142Y-90792279D02*
X72247142Y-91125612D01*
X72247142Y-91125612D02*
X72199523Y-91316088D01*
X72199523Y-91316088D02*
X72104285Y-91411327D01*
X72104285Y-91411327D02*
X72009047Y-91458946D01*
X72009047Y-91458946D02*
X71818571Y-91458946D01*
X72580476Y-90458946D02*
X73199523Y-90458946D01*
X73199523Y-90458946D02*
X72866190Y-90839898D01*
X72866190Y-90839898D02*
X73009047Y-90839898D01*
X73009047Y-90839898D02*
X73104285Y-90887517D01*
X73104285Y-90887517D02*
X73151904Y-90935136D01*
X73151904Y-90935136D02*
X73199523Y-91030374D01*
X73199523Y-91030374D02*
X73199523Y-91268469D01*
X73199523Y-91268469D02*
X73151904Y-91363707D01*
X73151904Y-91363707D02*
X73104285Y-91411327D01*
X73104285Y-91411327D02*
X73009047Y-91458946D01*
X73009047Y-91458946D02*
X72723333Y-91458946D01*
X72723333Y-91458946D02*
X72628095Y-91411327D01*
X72628095Y-91411327D02*
X72580476Y-91363707D01*
X39821666Y-82838946D02*
X39821666Y-83553231D01*
X39821666Y-83553231D02*
X39774047Y-83696088D01*
X39774047Y-83696088D02*
X39678809Y-83791327D01*
X39678809Y-83791327D02*
X39535952Y-83838946D01*
X39535952Y-83838946D02*
X39440714Y-83838946D01*
X40297857Y-83838946D02*
X40297857Y-82838946D01*
X40297857Y-82838946D02*
X40678809Y-82838946D01*
X40678809Y-82838946D02*
X40774047Y-82886565D01*
X40774047Y-82886565D02*
X40821666Y-82934184D01*
X40821666Y-82934184D02*
X40869285Y-83029422D01*
X40869285Y-83029422D02*
X40869285Y-83172279D01*
X40869285Y-83172279D02*
X40821666Y-83267517D01*
X40821666Y-83267517D02*
X40774047Y-83315136D01*
X40774047Y-83315136D02*
X40678809Y-83362755D01*
X40678809Y-83362755D02*
X40297857Y-83362755D01*
X41821666Y-83838946D02*
X41250238Y-83838946D01*
X41535952Y-83838946D02*
X41535952Y-82838946D01*
X41535952Y-82838946D02*
X41440714Y-82981803D01*
X41440714Y-82981803D02*
X41345476Y-83077041D01*
X41345476Y-83077041D02*
X41250238Y-83124660D01*
X55604580Y-93825793D02*
X55652200Y-93873412D01*
X55652200Y-93873412D02*
X55699819Y-94016269D01*
X55699819Y-94016269D02*
X55699819Y-94111507D01*
X55699819Y-94111507D02*
X55652200Y-94254364D01*
X55652200Y-94254364D02*
X55556961Y-94349602D01*
X55556961Y-94349602D02*
X55461723Y-94397221D01*
X55461723Y-94397221D02*
X55271247Y-94444840D01*
X55271247Y-94444840D02*
X55128390Y-94444840D01*
X55128390Y-94444840D02*
X54937914Y-94397221D01*
X54937914Y-94397221D02*
X54842676Y-94349602D01*
X54842676Y-94349602D02*
X54747438Y-94254364D01*
X54747438Y-94254364D02*
X54699819Y-94111507D01*
X54699819Y-94111507D02*
X54699819Y-94016269D01*
X54699819Y-94016269D02*
X54747438Y-93873412D01*
X54747438Y-93873412D02*
X54795057Y-93825793D01*
X55699819Y-92825793D02*
X55223628Y-93159126D01*
X55699819Y-93397221D02*
X54699819Y-93397221D01*
X54699819Y-93397221D02*
X54699819Y-93016269D01*
X54699819Y-93016269D02*
X54747438Y-92921031D01*
X54747438Y-92921031D02*
X54795057Y-92873412D01*
X54795057Y-92873412D02*
X54890295Y-92825793D01*
X54890295Y-92825793D02*
X55033152Y-92825793D01*
X55033152Y-92825793D02*
X55128390Y-92873412D01*
X55128390Y-92873412D02*
X55176009Y-92921031D01*
X55176009Y-92921031D02*
X55223628Y-93016269D01*
X55223628Y-93016269D02*
X55223628Y-93397221D01*
X55033152Y-91968650D02*
X55699819Y-91968650D01*
X54652200Y-92206745D02*
X55366485Y-92444840D01*
X55366485Y-92444840D02*
X55366485Y-91825793D01*
X52794819Y-91072526D02*
X53032914Y-91072526D01*
X52937676Y-91310621D02*
X53032914Y-91072526D01*
X53032914Y-91072526D02*
X52937676Y-90834431D01*
X53223390Y-91215383D02*
X53032914Y-91072526D01*
X53032914Y-91072526D02*
X53223390Y-90929669D01*
X88733333Y-101618946D02*
X88257143Y-101618946D01*
X88257143Y-101618946D02*
X88257143Y-100618946D01*
X89019048Y-100714184D02*
X89066667Y-100666565D01*
X89066667Y-100666565D02*
X89161905Y-100618946D01*
X89161905Y-100618946D02*
X89400000Y-100618946D01*
X89400000Y-100618946D02*
X89495238Y-100666565D01*
X89495238Y-100666565D02*
X89542857Y-100714184D01*
X89542857Y-100714184D02*
X89590476Y-100809422D01*
X89590476Y-100809422D02*
X89590476Y-100904660D01*
X89590476Y-100904660D02*
X89542857Y-101047517D01*
X89542857Y-101047517D02*
X88971429Y-101618946D01*
X88971429Y-101618946D02*
X89590476Y-101618946D01*
X61414819Y-88245793D02*
X60938628Y-88579126D01*
X61414819Y-88817221D02*
X60414819Y-88817221D01*
X60414819Y-88817221D02*
X60414819Y-88436269D01*
X60414819Y-88436269D02*
X60462438Y-88341031D01*
X60462438Y-88341031D02*
X60510057Y-88293412D01*
X60510057Y-88293412D02*
X60605295Y-88245793D01*
X60605295Y-88245793D02*
X60748152Y-88245793D01*
X60748152Y-88245793D02*
X60843390Y-88293412D01*
X60843390Y-88293412D02*
X60891009Y-88341031D01*
X60891009Y-88341031D02*
X60938628Y-88436269D01*
X60938628Y-88436269D02*
X60938628Y-88817221D01*
X60843390Y-87674364D02*
X60795771Y-87769602D01*
X60795771Y-87769602D02*
X60748152Y-87817221D01*
X60748152Y-87817221D02*
X60652914Y-87864840D01*
X60652914Y-87864840D02*
X60605295Y-87864840D01*
X60605295Y-87864840D02*
X60510057Y-87817221D01*
X60510057Y-87817221D02*
X60462438Y-87769602D01*
X60462438Y-87769602D02*
X60414819Y-87674364D01*
X60414819Y-87674364D02*
X60414819Y-87483888D01*
X60414819Y-87483888D02*
X60462438Y-87388650D01*
X60462438Y-87388650D02*
X60510057Y-87341031D01*
X60510057Y-87341031D02*
X60605295Y-87293412D01*
X60605295Y-87293412D02*
X60652914Y-87293412D01*
X60652914Y-87293412D02*
X60748152Y-87341031D01*
X60748152Y-87341031D02*
X60795771Y-87388650D01*
X60795771Y-87388650D02*
X60843390Y-87483888D01*
X60843390Y-87483888D02*
X60843390Y-87674364D01*
X60843390Y-87674364D02*
X60891009Y-87769602D01*
X60891009Y-87769602D02*
X60938628Y-87817221D01*
X60938628Y-87817221D02*
X61033866Y-87864840D01*
X61033866Y-87864840D02*
X61224342Y-87864840D01*
X61224342Y-87864840D02*
X61319580Y-87817221D01*
X61319580Y-87817221D02*
X61367200Y-87769602D01*
X61367200Y-87769602D02*
X61414819Y-87674364D01*
X61414819Y-87674364D02*
X61414819Y-87483888D01*
X61414819Y-87483888D02*
X61367200Y-87388650D01*
X61367200Y-87388650D02*
X61319580Y-87341031D01*
X61319580Y-87341031D02*
X61224342Y-87293412D01*
X61224342Y-87293412D02*
X61033866Y-87293412D01*
X61033866Y-87293412D02*
X60938628Y-87341031D01*
X60938628Y-87341031D02*
X60891009Y-87388650D01*
X60891009Y-87388650D02*
X60843390Y-87483888D01*
X78694642Y-93998946D02*
X78361309Y-93522755D01*
X78123214Y-93998946D02*
X78123214Y-92998946D01*
X78123214Y-92998946D02*
X78504166Y-92998946D01*
X78504166Y-92998946D02*
X78599404Y-93046565D01*
X78599404Y-93046565D02*
X78647023Y-93094184D01*
X78647023Y-93094184D02*
X78694642Y-93189422D01*
X78694642Y-93189422D02*
X78694642Y-93332279D01*
X78694642Y-93332279D02*
X78647023Y-93427517D01*
X78647023Y-93427517D02*
X78599404Y-93475136D01*
X78599404Y-93475136D02*
X78504166Y-93522755D01*
X78504166Y-93522755D02*
X78123214Y-93522755D01*
X79075595Y-93094184D02*
X79123214Y-93046565D01*
X79123214Y-93046565D02*
X79218452Y-92998946D01*
X79218452Y-92998946D02*
X79456547Y-92998946D01*
X79456547Y-92998946D02*
X79551785Y-93046565D01*
X79551785Y-93046565D02*
X79599404Y-93094184D01*
X79599404Y-93094184D02*
X79647023Y-93189422D01*
X79647023Y-93189422D02*
X79647023Y-93284660D01*
X79647023Y-93284660D02*
X79599404Y-93427517D01*
X79599404Y-93427517D02*
X79027976Y-93998946D01*
X79027976Y-93998946D02*
X79647023Y-93998946D01*
X80027976Y-93094184D02*
X80075595Y-93046565D01*
X80075595Y-93046565D02*
X80170833Y-92998946D01*
X80170833Y-92998946D02*
X80408928Y-92998946D01*
X80408928Y-92998946D02*
X80504166Y-93046565D01*
X80504166Y-93046565D02*
X80551785Y-93094184D01*
X80551785Y-93094184D02*
X80599404Y-93189422D01*
X80599404Y-93189422D02*
X80599404Y-93284660D01*
X80599404Y-93284660D02*
X80551785Y-93427517D01*
X80551785Y-93427517D02*
X79980357Y-93998946D01*
X79980357Y-93998946D02*
X80599404Y-93998946D01*
X68939580Y-95850793D02*
X68987200Y-95898412D01*
X68987200Y-95898412D02*
X69034819Y-96041269D01*
X69034819Y-96041269D02*
X69034819Y-96136507D01*
X69034819Y-96136507D02*
X68987200Y-96279364D01*
X68987200Y-96279364D02*
X68891961Y-96374602D01*
X68891961Y-96374602D02*
X68796723Y-96422221D01*
X68796723Y-96422221D02*
X68606247Y-96469840D01*
X68606247Y-96469840D02*
X68463390Y-96469840D01*
X68463390Y-96469840D02*
X68272914Y-96422221D01*
X68272914Y-96422221D02*
X68177676Y-96374602D01*
X68177676Y-96374602D02*
X68082438Y-96279364D01*
X68082438Y-96279364D02*
X68034819Y-96136507D01*
X68034819Y-96136507D02*
X68034819Y-96041269D01*
X68034819Y-96041269D02*
X68082438Y-95898412D01*
X68082438Y-95898412D02*
X68130057Y-95850793D01*
X69034819Y-94850793D02*
X68558628Y-95184126D01*
X69034819Y-95422221D02*
X68034819Y-95422221D01*
X68034819Y-95422221D02*
X68034819Y-95041269D01*
X68034819Y-95041269D02*
X68082438Y-94946031D01*
X68082438Y-94946031D02*
X68130057Y-94898412D01*
X68130057Y-94898412D02*
X68225295Y-94850793D01*
X68225295Y-94850793D02*
X68368152Y-94850793D01*
X68368152Y-94850793D02*
X68463390Y-94898412D01*
X68463390Y-94898412D02*
X68511009Y-94946031D01*
X68511009Y-94946031D02*
X68558628Y-95041269D01*
X68558628Y-95041269D02*
X68558628Y-95422221D01*
X68130057Y-94469840D02*
X68082438Y-94422221D01*
X68082438Y-94422221D02*
X68034819Y-94326983D01*
X68034819Y-94326983D02*
X68034819Y-94088888D01*
X68034819Y-94088888D02*
X68082438Y-93993650D01*
X68082438Y-93993650D02*
X68130057Y-93946031D01*
X68130057Y-93946031D02*
X68225295Y-93898412D01*
X68225295Y-93898412D02*
X68320533Y-93898412D01*
X68320533Y-93898412D02*
X68463390Y-93946031D01*
X68463390Y-93946031D02*
X69034819Y-94517459D01*
X69034819Y-94517459D02*
X69034819Y-93898412D01*
X68034819Y-93460726D02*
X68272914Y-93460726D01*
X68177676Y-93698821D02*
X68272914Y-93460726D01*
X68272914Y-93460726D02*
X68177676Y-93222631D01*
X68463390Y-93603583D02*
X68272914Y-93460726D01*
X68272914Y-93460726D02*
X68463390Y-93317869D01*
X68034819Y-93460726D02*
X68272914Y-93460726D01*
X68177676Y-93698821D02*
X68272914Y-93460726D01*
X68272914Y-93460726D02*
X68177676Y-93222631D01*
X68463390Y-93603583D02*
X68272914Y-93460726D01*
X68272914Y-93460726D02*
X68463390Y-93317869D01*
X67034580Y-95850793D02*
X67082200Y-95898412D01*
X67082200Y-95898412D02*
X67129819Y-96041269D01*
X67129819Y-96041269D02*
X67129819Y-96136507D01*
X67129819Y-96136507D02*
X67082200Y-96279364D01*
X67082200Y-96279364D02*
X66986961Y-96374602D01*
X66986961Y-96374602D02*
X66891723Y-96422221D01*
X66891723Y-96422221D02*
X66701247Y-96469840D01*
X66701247Y-96469840D02*
X66558390Y-96469840D01*
X66558390Y-96469840D02*
X66367914Y-96422221D01*
X66367914Y-96422221D02*
X66272676Y-96374602D01*
X66272676Y-96374602D02*
X66177438Y-96279364D01*
X66177438Y-96279364D02*
X66129819Y-96136507D01*
X66129819Y-96136507D02*
X66129819Y-96041269D01*
X66129819Y-96041269D02*
X66177438Y-95898412D01*
X66177438Y-95898412D02*
X66225057Y-95850793D01*
X67129819Y-94850793D02*
X66653628Y-95184126D01*
X67129819Y-95422221D02*
X66129819Y-95422221D01*
X66129819Y-95422221D02*
X66129819Y-95041269D01*
X66129819Y-95041269D02*
X66177438Y-94946031D01*
X66177438Y-94946031D02*
X66225057Y-94898412D01*
X66225057Y-94898412D02*
X66320295Y-94850793D01*
X66320295Y-94850793D02*
X66463152Y-94850793D01*
X66463152Y-94850793D02*
X66558390Y-94898412D01*
X66558390Y-94898412D02*
X66606009Y-94946031D01*
X66606009Y-94946031D02*
X66653628Y-95041269D01*
X66653628Y-95041269D02*
X66653628Y-95422221D01*
X67129819Y-93898412D02*
X67129819Y-94469840D01*
X67129819Y-94184126D02*
X66129819Y-94184126D01*
X66129819Y-94184126D02*
X66272676Y-94279364D01*
X66272676Y-94279364D02*
X66367914Y-94374602D01*
X66367914Y-94374602D02*
X66415533Y-94469840D01*
X66129819Y-93460726D02*
X66367914Y-93460726D01*
X66272676Y-93698821D02*
X66367914Y-93460726D01*
X66367914Y-93460726D02*
X66272676Y-93222631D01*
X66558390Y-93603583D02*
X66367914Y-93460726D01*
X66367914Y-93460726D02*
X66558390Y-93317869D01*
X66129819Y-93460726D02*
X66367914Y-93460726D01*
X66272676Y-93698821D02*
X66367914Y-93460726D01*
X66367914Y-93460726D02*
X66272676Y-93222631D01*
X66558390Y-93603583D02*
X66367914Y-93460726D01*
X66367914Y-93460726D02*
X66558390Y-93317869D01*
X52605833Y-79643946D02*
X52272500Y-79167755D01*
X52034405Y-79643946D02*
X52034405Y-78643946D01*
X52034405Y-78643946D02*
X52415357Y-78643946D01*
X52415357Y-78643946D02*
X52510595Y-78691565D01*
X52510595Y-78691565D02*
X52558214Y-78739184D01*
X52558214Y-78739184D02*
X52605833Y-78834422D01*
X52605833Y-78834422D02*
X52605833Y-78977279D01*
X52605833Y-78977279D02*
X52558214Y-79072517D01*
X52558214Y-79072517D02*
X52510595Y-79120136D01*
X52510595Y-79120136D02*
X52415357Y-79167755D01*
X52415357Y-79167755D02*
X52034405Y-79167755D01*
X52986786Y-78739184D02*
X53034405Y-78691565D01*
X53034405Y-78691565D02*
X53129643Y-78643946D01*
X53129643Y-78643946D02*
X53367738Y-78643946D01*
X53367738Y-78643946D02*
X53462976Y-78691565D01*
X53462976Y-78691565D02*
X53510595Y-78739184D01*
X53510595Y-78739184D02*
X53558214Y-78834422D01*
X53558214Y-78834422D02*
X53558214Y-78929660D01*
X53558214Y-78929660D02*
X53510595Y-79072517D01*
X53510595Y-79072517D02*
X52939167Y-79643946D01*
X52939167Y-79643946D02*
X53558214Y-79643946D01*
X105983095Y-91503946D02*
X105983095Y-92313469D01*
X105983095Y-92313469D02*
X106030714Y-92408707D01*
X106030714Y-92408707D02*
X106078333Y-92456327D01*
X106078333Y-92456327D02*
X106173571Y-92503946D01*
X106173571Y-92503946D02*
X106364047Y-92503946D01*
X106364047Y-92503946D02*
X106459285Y-92456327D01*
X106459285Y-92456327D02*
X106506904Y-92408707D01*
X106506904Y-92408707D02*
X106554523Y-92313469D01*
X106554523Y-92313469D02*
X106554523Y-91503946D01*
X107506904Y-91503946D02*
X107030714Y-91503946D01*
X107030714Y-91503946D02*
X106983095Y-91980136D01*
X106983095Y-91980136D02*
X107030714Y-91932517D01*
X107030714Y-91932517D02*
X107125952Y-91884898D01*
X107125952Y-91884898D02*
X107364047Y-91884898D01*
X107364047Y-91884898D02*
X107459285Y-91932517D01*
X107459285Y-91932517D02*
X107506904Y-91980136D01*
X107506904Y-91980136D02*
X107554523Y-92075374D01*
X107554523Y-92075374D02*
X107554523Y-92313469D01*
X107554523Y-92313469D02*
X107506904Y-92408707D01*
X107506904Y-92408707D02*
X107459285Y-92456327D01*
X107459285Y-92456327D02*
X107364047Y-92503946D01*
X107364047Y-92503946D02*
X107125952Y-92503946D01*
X107125952Y-92503946D02*
X107030714Y-92456327D01*
X107030714Y-92456327D02*
X106983095Y-92408707D01*
X39821666Y-85378946D02*
X39821666Y-86093231D01*
X39821666Y-86093231D02*
X39774047Y-86236088D01*
X39774047Y-86236088D02*
X39678809Y-86331327D01*
X39678809Y-86331327D02*
X39535952Y-86378946D01*
X39535952Y-86378946D02*
X39440714Y-86378946D01*
X40297857Y-86378946D02*
X40297857Y-85378946D01*
X40297857Y-85378946D02*
X40678809Y-85378946D01*
X40678809Y-85378946D02*
X40774047Y-85426565D01*
X40774047Y-85426565D02*
X40821666Y-85474184D01*
X40821666Y-85474184D02*
X40869285Y-85569422D01*
X40869285Y-85569422D02*
X40869285Y-85712279D01*
X40869285Y-85712279D02*
X40821666Y-85807517D01*
X40821666Y-85807517D02*
X40774047Y-85855136D01*
X40774047Y-85855136D02*
X40678809Y-85902755D01*
X40678809Y-85902755D02*
X40297857Y-85902755D01*
X41250238Y-85474184D02*
X41297857Y-85426565D01*
X41297857Y-85426565D02*
X41393095Y-85378946D01*
X41393095Y-85378946D02*
X41631190Y-85378946D01*
X41631190Y-85378946D02*
X41726428Y-85426565D01*
X41726428Y-85426565D02*
X41774047Y-85474184D01*
X41774047Y-85474184D02*
X41821666Y-85569422D01*
X41821666Y-85569422D02*
X41821666Y-85664660D01*
X41821666Y-85664660D02*
X41774047Y-85807517D01*
X41774047Y-85807517D02*
X41202619Y-86378946D01*
X41202619Y-86378946D02*
X41821666Y-86378946D01*
X69034819Y-88245793D02*
X68558628Y-88579126D01*
X69034819Y-88817221D02*
X68034819Y-88817221D01*
X68034819Y-88817221D02*
X68034819Y-88436269D01*
X68034819Y-88436269D02*
X68082438Y-88341031D01*
X68082438Y-88341031D02*
X68130057Y-88293412D01*
X68130057Y-88293412D02*
X68225295Y-88245793D01*
X68225295Y-88245793D02*
X68368152Y-88245793D01*
X68368152Y-88245793D02*
X68463390Y-88293412D01*
X68463390Y-88293412D02*
X68511009Y-88341031D01*
X68511009Y-88341031D02*
X68558628Y-88436269D01*
X68558628Y-88436269D02*
X68558628Y-88817221D01*
X68034819Y-87388650D02*
X68034819Y-87579126D01*
X68034819Y-87579126D02*
X68082438Y-87674364D01*
X68082438Y-87674364D02*
X68130057Y-87721983D01*
X68130057Y-87721983D02*
X68272914Y-87817221D01*
X68272914Y-87817221D02*
X68463390Y-87864840D01*
X68463390Y-87864840D02*
X68844342Y-87864840D01*
X68844342Y-87864840D02*
X68939580Y-87817221D01*
X68939580Y-87817221D02*
X68987200Y-87769602D01*
X68987200Y-87769602D02*
X69034819Y-87674364D01*
X69034819Y-87674364D02*
X69034819Y-87483888D01*
X69034819Y-87483888D02*
X68987200Y-87388650D01*
X68987200Y-87388650D02*
X68939580Y-87341031D01*
X68939580Y-87341031D02*
X68844342Y-87293412D01*
X68844342Y-87293412D02*
X68606247Y-87293412D01*
X68606247Y-87293412D02*
X68511009Y-87341031D01*
X68511009Y-87341031D02*
X68463390Y-87388650D01*
X68463390Y-87388650D02*
X68415771Y-87483888D01*
X68415771Y-87483888D02*
X68415771Y-87674364D01*
X68415771Y-87674364D02*
X68463390Y-87769602D01*
X68463390Y-87769602D02*
X68511009Y-87817221D01*
X68511009Y-87817221D02*
X68606247Y-87864840D01*
X43172142Y-98443946D02*
X42838809Y-97967755D01*
X42600714Y-98443946D02*
X42600714Y-97443946D01*
X42600714Y-97443946D02*
X42981666Y-97443946D01*
X42981666Y-97443946D02*
X43076904Y-97491565D01*
X43076904Y-97491565D02*
X43124523Y-97539184D01*
X43124523Y-97539184D02*
X43172142Y-97634422D01*
X43172142Y-97634422D02*
X43172142Y-97777279D01*
X43172142Y-97777279D02*
X43124523Y-97872517D01*
X43124523Y-97872517D02*
X43076904Y-97920136D01*
X43076904Y-97920136D02*
X42981666Y-97967755D01*
X42981666Y-97967755D02*
X42600714Y-97967755D01*
X44124523Y-98443946D02*
X43553095Y-98443946D01*
X43838809Y-98443946D02*
X43838809Y-97443946D01*
X43838809Y-97443946D02*
X43743571Y-97586803D01*
X43743571Y-97586803D02*
X43648333Y-97682041D01*
X43648333Y-97682041D02*
X43553095Y-97729660D01*
X44743571Y-97443946D02*
X44838809Y-97443946D01*
X44838809Y-97443946D02*
X44934047Y-97491565D01*
X44934047Y-97491565D02*
X44981666Y-97539184D01*
X44981666Y-97539184D02*
X45029285Y-97634422D01*
X45029285Y-97634422D02*
X45076904Y-97824898D01*
X45076904Y-97824898D02*
X45076904Y-98062993D01*
X45076904Y-98062993D02*
X45029285Y-98253469D01*
X45029285Y-98253469D02*
X44981666Y-98348707D01*
X44981666Y-98348707D02*
X44934047Y-98396327D01*
X44934047Y-98396327D02*
X44838809Y-98443946D01*
X44838809Y-98443946D02*
X44743571Y-98443946D01*
X44743571Y-98443946D02*
X44648333Y-98396327D01*
X44648333Y-98396327D02*
X44600714Y-98348707D01*
X44600714Y-98348707D02*
X44553095Y-98253469D01*
X44553095Y-98253469D02*
X44505476Y-98062993D01*
X44505476Y-98062993D02*
X44505476Y-97824898D01*
X44505476Y-97824898D02*
X44553095Y-97634422D01*
X44553095Y-97634422D02*
X44600714Y-97539184D01*
X44600714Y-97539184D02*
X44648333Y-97491565D01*
X44648333Y-97491565D02*
X44743571Y-97443946D01*
X83403333Y-92633707D02*
X83355714Y-92681327D01*
X83355714Y-92681327D02*
X83212857Y-92728946D01*
X83212857Y-92728946D02*
X83117619Y-92728946D01*
X83117619Y-92728946D02*
X82974762Y-92681327D01*
X82974762Y-92681327D02*
X82879524Y-92586088D01*
X82879524Y-92586088D02*
X82831905Y-92490850D01*
X82831905Y-92490850D02*
X82784286Y-92300374D01*
X82784286Y-92300374D02*
X82784286Y-92157517D01*
X82784286Y-92157517D02*
X82831905Y-91967041D01*
X82831905Y-91967041D02*
X82879524Y-91871803D01*
X82879524Y-91871803D02*
X82974762Y-91776565D01*
X82974762Y-91776565D02*
X83117619Y-91728946D01*
X83117619Y-91728946D02*
X83212857Y-91728946D01*
X83212857Y-91728946D02*
X83355714Y-91776565D01*
X83355714Y-91776565D02*
X83403333Y-91824184D01*
X83974762Y-92157517D02*
X83879524Y-92109898D01*
X83879524Y-92109898D02*
X83831905Y-92062279D01*
X83831905Y-92062279D02*
X83784286Y-91967041D01*
X83784286Y-91967041D02*
X83784286Y-91919422D01*
X83784286Y-91919422D02*
X83831905Y-91824184D01*
X83831905Y-91824184D02*
X83879524Y-91776565D01*
X83879524Y-91776565D02*
X83974762Y-91728946D01*
X83974762Y-91728946D02*
X84165238Y-91728946D01*
X84165238Y-91728946D02*
X84260476Y-91776565D01*
X84260476Y-91776565D02*
X84308095Y-91824184D01*
X84308095Y-91824184D02*
X84355714Y-91919422D01*
X84355714Y-91919422D02*
X84355714Y-91967041D01*
X84355714Y-91967041D02*
X84308095Y-92062279D01*
X84308095Y-92062279D02*
X84260476Y-92109898D01*
X84260476Y-92109898D02*
X84165238Y-92157517D01*
X84165238Y-92157517D02*
X83974762Y-92157517D01*
X83974762Y-92157517D02*
X83879524Y-92205136D01*
X83879524Y-92205136D02*
X83831905Y-92252755D01*
X83831905Y-92252755D02*
X83784286Y-92347993D01*
X83784286Y-92347993D02*
X83784286Y-92538469D01*
X83784286Y-92538469D02*
X83831905Y-92633707D01*
X83831905Y-92633707D02*
X83879524Y-92681327D01*
X83879524Y-92681327D02*
X83974762Y-92728946D01*
X83974762Y-92728946D02*
X84165238Y-92728946D01*
X84165238Y-92728946D02*
X84260476Y-92681327D01*
X84260476Y-92681327D02*
X84308095Y-92633707D01*
X84308095Y-92633707D02*
X84355714Y-92538469D01*
X84355714Y-92538469D02*
X84355714Y-92347993D01*
X84355714Y-92347993D02*
X84308095Y-92252755D01*
X84308095Y-92252755D02*
X84260476Y-92205136D01*
X84260476Y-92205136D02*
X84165238Y-92157517D01*
X52538333Y-77103946D02*
X52205000Y-76627755D01*
X51966905Y-77103946D02*
X51966905Y-76103946D01*
X51966905Y-76103946D02*
X52347857Y-76103946D01*
X52347857Y-76103946D02*
X52443095Y-76151565D01*
X52443095Y-76151565D02*
X52490714Y-76199184D01*
X52490714Y-76199184D02*
X52538333Y-76294422D01*
X52538333Y-76294422D02*
X52538333Y-76437279D01*
X52538333Y-76437279D02*
X52490714Y-76532517D01*
X52490714Y-76532517D02*
X52443095Y-76580136D01*
X52443095Y-76580136D02*
X52347857Y-76627755D01*
X52347857Y-76627755D02*
X51966905Y-76627755D01*
X53443095Y-76103946D02*
X52966905Y-76103946D01*
X52966905Y-76103946D02*
X52919286Y-76580136D01*
X52919286Y-76580136D02*
X52966905Y-76532517D01*
X52966905Y-76532517D02*
X53062143Y-76484898D01*
X53062143Y-76484898D02*
X53300238Y-76484898D01*
X53300238Y-76484898D02*
X53395476Y-76532517D01*
X53395476Y-76532517D02*
X53443095Y-76580136D01*
X53443095Y-76580136D02*
X53490714Y-76675374D01*
X53490714Y-76675374D02*
X53490714Y-76913469D01*
X53490714Y-76913469D02*
X53443095Y-77008707D01*
X53443095Y-77008707D02*
X53395476Y-77056327D01*
X53395476Y-77056327D02*
X53300238Y-77103946D01*
X53300238Y-77103946D02*
X53062143Y-77103946D01*
X53062143Y-77103946D02*
X52966905Y-77056327D01*
X52966905Y-77056327D02*
X52919286Y-77008707D01*
X88733333Y-99078946D02*
X88257143Y-99078946D01*
X88257143Y-99078946D02*
X88257143Y-98078946D01*
X89590476Y-99078946D02*
X89019048Y-99078946D01*
X89304762Y-99078946D02*
X89304762Y-98078946D01*
X89304762Y-98078946D02*
X89209524Y-98221803D01*
X89209524Y-98221803D02*
X89114286Y-98317041D01*
X89114286Y-98317041D02*
X89019048Y-98364660D01*
X71149642Y-100448946D02*
X70816309Y-99972755D01*
X70578214Y-100448946D02*
X70578214Y-99448946D01*
X70578214Y-99448946D02*
X70959166Y-99448946D01*
X70959166Y-99448946D02*
X71054404Y-99496565D01*
X71054404Y-99496565D02*
X71102023Y-99544184D01*
X71102023Y-99544184D02*
X71149642Y-99639422D01*
X71149642Y-99639422D02*
X71149642Y-99782279D01*
X71149642Y-99782279D02*
X71102023Y-99877517D01*
X71102023Y-99877517D02*
X71054404Y-99925136D01*
X71054404Y-99925136D02*
X70959166Y-99972755D01*
X70959166Y-99972755D02*
X70578214Y-99972755D01*
X71530595Y-99544184D02*
X71578214Y-99496565D01*
X71578214Y-99496565D02*
X71673452Y-99448946D01*
X71673452Y-99448946D02*
X71911547Y-99448946D01*
X71911547Y-99448946D02*
X72006785Y-99496565D01*
X72006785Y-99496565D02*
X72054404Y-99544184D01*
X72054404Y-99544184D02*
X72102023Y-99639422D01*
X72102023Y-99639422D02*
X72102023Y-99734660D01*
X72102023Y-99734660D02*
X72054404Y-99877517D01*
X72054404Y-99877517D02*
X71482976Y-100448946D01*
X71482976Y-100448946D02*
X72102023Y-100448946D01*
X72959166Y-99448946D02*
X72768690Y-99448946D01*
X72768690Y-99448946D02*
X72673452Y-99496565D01*
X72673452Y-99496565D02*
X72625833Y-99544184D01*
X72625833Y-99544184D02*
X72530595Y-99687041D01*
X72530595Y-99687041D02*
X72482976Y-99877517D01*
X72482976Y-99877517D02*
X72482976Y-100258469D01*
X72482976Y-100258469D02*
X72530595Y-100353707D01*
X72530595Y-100353707D02*
X72578214Y-100401327D01*
X72578214Y-100401327D02*
X72673452Y-100448946D01*
X72673452Y-100448946D02*
X72863928Y-100448946D01*
X72863928Y-100448946D02*
X72959166Y-100401327D01*
X72959166Y-100401327D02*
X73006785Y-100353707D01*
X73006785Y-100353707D02*
X73054404Y-100258469D01*
X73054404Y-100258469D02*
X73054404Y-100020374D01*
X73054404Y-100020374D02*
X73006785Y-99925136D01*
X73006785Y-99925136D02*
X72959166Y-99877517D01*
X72959166Y-99877517D02*
X72863928Y-99829898D01*
X72863928Y-99829898D02*
X72673452Y-99829898D01*
X72673452Y-99829898D02*
X72578214Y-99877517D01*
X72578214Y-99877517D02*
X72530595Y-99925136D01*
X72530595Y-99925136D02*
X72482976Y-100020374D01*
X82927142Y-95268946D02*
X82593809Y-94792755D01*
X82355714Y-95268946D02*
X82355714Y-94268946D01*
X82355714Y-94268946D02*
X82736666Y-94268946D01*
X82736666Y-94268946D02*
X82831904Y-94316565D01*
X82831904Y-94316565D02*
X82879523Y-94364184D01*
X82879523Y-94364184D02*
X82927142Y-94459422D01*
X82927142Y-94459422D02*
X82927142Y-94602279D01*
X82927142Y-94602279D02*
X82879523Y-94697517D01*
X82879523Y-94697517D02*
X82831904Y-94745136D01*
X82831904Y-94745136D02*
X82736666Y-94792755D01*
X82736666Y-94792755D02*
X82355714Y-94792755D01*
X83879523Y-95268946D02*
X83308095Y-95268946D01*
X83593809Y-95268946D02*
X83593809Y-94268946D01*
X83593809Y-94268946D02*
X83498571Y-94411803D01*
X83498571Y-94411803D02*
X83403333Y-94507041D01*
X83403333Y-94507041D02*
X83308095Y-94554660D01*
X84212857Y-94268946D02*
X84831904Y-94268946D01*
X84831904Y-94268946D02*
X84498571Y-94649898D01*
X84498571Y-94649898D02*
X84641428Y-94649898D01*
X84641428Y-94649898D02*
X84736666Y-94697517D01*
X84736666Y-94697517D02*
X84784285Y-94745136D01*
X84784285Y-94745136D02*
X84831904Y-94840374D01*
X84831904Y-94840374D02*
X84831904Y-95078469D01*
X84831904Y-95078469D02*
X84784285Y-95173707D01*
X84784285Y-95173707D02*
X84736666Y-95221327D01*
X84736666Y-95221327D02*
X84641428Y-95268946D01*
X84641428Y-95268946D02*
X84355714Y-95268946D01*
X84355714Y-95268946D02*
X84260476Y-95221327D01*
X84260476Y-95221327D02*
X84212857Y-95173707D01*
X102054819Y-89542857D02*
X101578628Y-89876190D01*
X102054819Y-90114285D02*
X101054819Y-90114285D01*
X101054819Y-90114285D02*
X101054819Y-89733333D01*
X101054819Y-89733333D02*
X101102438Y-89638095D01*
X101102438Y-89638095D02*
X101150057Y-89590476D01*
X101150057Y-89590476D02*
X101245295Y-89542857D01*
X101245295Y-89542857D02*
X101388152Y-89542857D01*
X101388152Y-89542857D02*
X101483390Y-89590476D01*
X101483390Y-89590476D02*
X101531009Y-89638095D01*
X101531009Y-89638095D02*
X101578628Y-89733333D01*
X101578628Y-89733333D02*
X101578628Y-90114285D01*
X102054819Y-88590476D02*
X102054819Y-89161904D01*
X102054819Y-88876190D02*
X101054819Y-88876190D01*
X101054819Y-88876190D02*
X101197676Y-88971428D01*
X101197676Y-88971428D02*
X101292914Y-89066666D01*
X101292914Y-89066666D02*
X101340533Y-89161904D01*
X101483390Y-88019047D02*
X101435771Y-88114285D01*
X101435771Y-88114285D02*
X101388152Y-88161904D01*
X101388152Y-88161904D02*
X101292914Y-88209523D01*
X101292914Y-88209523D02*
X101245295Y-88209523D01*
X101245295Y-88209523D02*
X101150057Y-88161904D01*
X101150057Y-88161904D02*
X101102438Y-88114285D01*
X101102438Y-88114285D02*
X101054819Y-88019047D01*
X101054819Y-88019047D02*
X101054819Y-87828571D01*
X101054819Y-87828571D02*
X101102438Y-87733333D01*
X101102438Y-87733333D02*
X101150057Y-87685714D01*
X101150057Y-87685714D02*
X101245295Y-87638095D01*
X101245295Y-87638095D02*
X101292914Y-87638095D01*
X101292914Y-87638095D02*
X101388152Y-87685714D01*
X101388152Y-87685714D02*
X101435771Y-87733333D01*
X101435771Y-87733333D02*
X101483390Y-87828571D01*
X101483390Y-87828571D02*
X101483390Y-88019047D01*
X101483390Y-88019047D02*
X101531009Y-88114285D01*
X101531009Y-88114285D02*
X101578628Y-88161904D01*
X101578628Y-88161904D02*
X101673866Y-88209523D01*
X101673866Y-88209523D02*
X101864342Y-88209523D01*
X101864342Y-88209523D02*
X101959580Y-88161904D01*
X101959580Y-88161904D02*
X102007200Y-88114285D01*
X102007200Y-88114285D02*
X102054819Y-88019047D01*
X102054819Y-88019047D02*
X102054819Y-87828571D01*
X102054819Y-87828571D02*
X102007200Y-87733333D01*
X102007200Y-87733333D02*
X101959580Y-87685714D01*
X101959580Y-87685714D02*
X101864342Y-87638095D01*
X101864342Y-87638095D02*
X101673866Y-87638095D01*
X101673866Y-87638095D02*
X101578628Y-87685714D01*
X101578628Y-87685714D02*
X101531009Y-87733333D01*
X101531009Y-87733333D02*
X101483390Y-87828571D01*
X129967445Y-100261534D02*
X129919826Y-100309154D01*
X129919826Y-100309154D02*
X129776969Y-100356773D01*
X129776969Y-100356773D02*
X129681731Y-100356773D01*
X129681731Y-100356773D02*
X129538874Y-100309154D01*
X129538874Y-100309154D02*
X129443636Y-100213915D01*
X129443636Y-100213915D02*
X129396017Y-100118677D01*
X129396017Y-100118677D02*
X129348398Y-99928201D01*
X129348398Y-99928201D02*
X129348398Y-99785344D01*
X129348398Y-99785344D02*
X129396017Y-99594868D01*
X129396017Y-99594868D02*
X129443636Y-99499630D01*
X129443636Y-99499630D02*
X129538874Y-99404392D01*
X129538874Y-99404392D02*
X129681731Y-99356773D01*
X129681731Y-99356773D02*
X129776969Y-99356773D01*
X129776969Y-99356773D02*
X129919826Y-99404392D01*
X129919826Y-99404392D02*
X129967445Y-99452011D01*
X130396017Y-100356773D02*
X130396017Y-99356773D01*
X130396017Y-99356773D02*
X130776969Y-99356773D01*
X130776969Y-99356773D02*
X130872207Y-99404392D01*
X130872207Y-99404392D02*
X130919826Y-99452011D01*
X130919826Y-99452011D02*
X130967445Y-99547249D01*
X130967445Y-99547249D02*
X130967445Y-99690106D01*
X130967445Y-99690106D02*
X130919826Y-99785344D01*
X130919826Y-99785344D02*
X130872207Y-99832963D01*
X130872207Y-99832963D02*
X130776969Y-99880582D01*
X130776969Y-99880582D02*
X130396017Y-99880582D01*
X131919826Y-100356773D02*
X131348398Y-100356773D01*
X131634112Y-100356773D02*
X131634112Y-99356773D01*
X131634112Y-99356773D02*
X131538874Y-99499630D01*
X131538874Y-99499630D02*
X131443636Y-99594868D01*
X131443636Y-99594868D02*
X131348398Y-99642487D01*
X98167142Y-95268946D02*
X97833809Y-94792755D01*
X97595714Y-95268946D02*
X97595714Y-94268946D01*
X97595714Y-94268946D02*
X97976666Y-94268946D01*
X97976666Y-94268946D02*
X98071904Y-94316565D01*
X98071904Y-94316565D02*
X98119523Y-94364184D01*
X98119523Y-94364184D02*
X98167142Y-94459422D01*
X98167142Y-94459422D02*
X98167142Y-94602279D01*
X98167142Y-94602279D02*
X98119523Y-94697517D01*
X98119523Y-94697517D02*
X98071904Y-94745136D01*
X98071904Y-94745136D02*
X97976666Y-94792755D01*
X97976666Y-94792755D02*
X97595714Y-94792755D01*
X99119523Y-95268946D02*
X98548095Y-95268946D01*
X98833809Y-95268946D02*
X98833809Y-94268946D01*
X98833809Y-94268946D02*
X98738571Y-94411803D01*
X98738571Y-94411803D02*
X98643333Y-94507041D01*
X98643333Y-94507041D02*
X98548095Y-94554660D01*
X100071904Y-95268946D02*
X99500476Y-95268946D01*
X99786190Y-95268946D02*
X99786190Y-94268946D01*
X99786190Y-94268946D02*
X99690952Y-94411803D01*
X99690952Y-94411803D02*
X99595714Y-94507041D01*
X99595714Y-94507041D02*
X99500476Y-94554660D01*
X98167142Y-93998946D02*
X97833809Y-93522755D01*
X97595714Y-93998946D02*
X97595714Y-92998946D01*
X97595714Y-92998946D02*
X97976666Y-92998946D01*
X97976666Y-92998946D02*
X98071904Y-93046565D01*
X98071904Y-93046565D02*
X98119523Y-93094184D01*
X98119523Y-93094184D02*
X98167142Y-93189422D01*
X98167142Y-93189422D02*
X98167142Y-93332279D01*
X98167142Y-93332279D02*
X98119523Y-93427517D01*
X98119523Y-93427517D02*
X98071904Y-93475136D01*
X98071904Y-93475136D02*
X97976666Y-93522755D01*
X97976666Y-93522755D02*
X97595714Y-93522755D01*
X99119523Y-93998946D02*
X98548095Y-93998946D01*
X98833809Y-93998946D02*
X98833809Y-92998946D01*
X98833809Y-92998946D02*
X98738571Y-93141803D01*
X98738571Y-93141803D02*
X98643333Y-93237041D01*
X98643333Y-93237041D02*
X98548095Y-93284660D01*
X99500476Y-93094184D02*
X99548095Y-93046565D01*
X99548095Y-93046565D02*
X99643333Y-92998946D01*
X99643333Y-92998946D02*
X99881428Y-92998946D01*
X99881428Y-92998946D02*
X99976666Y-93046565D01*
X99976666Y-93046565D02*
X100024285Y-93094184D01*
X100024285Y-93094184D02*
X100071904Y-93189422D01*
X100071904Y-93189422D02*
X100071904Y-93284660D01*
X100071904Y-93284660D02*
X100024285Y-93427517D01*
X100024285Y-93427517D02*
X99452857Y-93998946D01*
X99452857Y-93998946D02*
X100071904Y-93998946D01*
X78657142Y-82568946D02*
X78323809Y-82092755D01*
X78085714Y-82568946D02*
X78085714Y-81568946D01*
X78085714Y-81568946D02*
X78466666Y-81568946D01*
X78466666Y-81568946D02*
X78561904Y-81616565D01*
X78561904Y-81616565D02*
X78609523Y-81664184D01*
X78609523Y-81664184D02*
X78657142Y-81759422D01*
X78657142Y-81759422D02*
X78657142Y-81902279D01*
X78657142Y-81902279D02*
X78609523Y-81997517D01*
X78609523Y-81997517D02*
X78561904Y-82045136D01*
X78561904Y-82045136D02*
X78466666Y-82092755D01*
X78466666Y-82092755D02*
X78085714Y-82092755D01*
X79609523Y-82568946D02*
X79038095Y-82568946D01*
X79323809Y-82568946D02*
X79323809Y-81568946D01*
X79323809Y-81568946D02*
X79228571Y-81711803D01*
X79228571Y-81711803D02*
X79133333Y-81807041D01*
X79133333Y-81807041D02*
X79038095Y-81854660D01*
X79942857Y-81568946D02*
X80609523Y-81568946D01*
X80609523Y-81568946D02*
X80180952Y-82568946D01*
X82927142Y-93998946D02*
X82593809Y-93522755D01*
X82355714Y-93998946D02*
X82355714Y-92998946D01*
X82355714Y-92998946D02*
X82736666Y-92998946D01*
X82736666Y-92998946D02*
X82831904Y-93046565D01*
X82831904Y-93046565D02*
X82879523Y-93094184D01*
X82879523Y-93094184D02*
X82927142Y-93189422D01*
X82927142Y-93189422D02*
X82927142Y-93332279D01*
X82927142Y-93332279D02*
X82879523Y-93427517D01*
X82879523Y-93427517D02*
X82831904Y-93475136D01*
X82831904Y-93475136D02*
X82736666Y-93522755D01*
X82736666Y-93522755D02*
X82355714Y-93522755D01*
X83879523Y-93998946D02*
X83308095Y-93998946D01*
X83593809Y-93998946D02*
X83593809Y-92998946D01*
X83593809Y-92998946D02*
X83498571Y-93141803D01*
X83498571Y-93141803D02*
X83403333Y-93237041D01*
X83403333Y-93237041D02*
X83308095Y-93284660D01*
X84736666Y-93332279D02*
X84736666Y-93998946D01*
X84498571Y-92951327D02*
X84260476Y-93665612D01*
X84260476Y-93665612D02*
X84879523Y-93665612D01*
X46251905Y-78758946D02*
X46251905Y-77758946D01*
X46251905Y-77758946D02*
X46490000Y-77758946D01*
X46490000Y-77758946D02*
X46632857Y-77806565D01*
X46632857Y-77806565D02*
X46728095Y-77901803D01*
X46728095Y-77901803D02*
X46775714Y-77997041D01*
X46775714Y-77997041D02*
X46823333Y-78187517D01*
X46823333Y-78187517D02*
X46823333Y-78330374D01*
X46823333Y-78330374D02*
X46775714Y-78520850D01*
X46775714Y-78520850D02*
X46728095Y-78616088D01*
X46728095Y-78616088D02*
X46632857Y-78711327D01*
X46632857Y-78711327D02*
X46490000Y-78758946D01*
X46490000Y-78758946D02*
X46251905Y-78758946D01*
X47775714Y-78758946D02*
X47204286Y-78758946D01*
X47490000Y-78758946D02*
X47490000Y-77758946D01*
X47490000Y-77758946D02*
X47394762Y-77901803D01*
X47394762Y-77901803D02*
X47299524Y-77997041D01*
X47299524Y-77997041D02*
X47204286Y-78044660D01*
X90428095Y-95548946D02*
X90428095Y-96358469D01*
X90428095Y-96358469D02*
X90475714Y-96453707D01*
X90475714Y-96453707D02*
X90523333Y-96501327D01*
X90523333Y-96501327D02*
X90618571Y-96548946D01*
X90618571Y-96548946D02*
X90809047Y-96548946D01*
X90809047Y-96548946D02*
X90904285Y-96501327D01*
X90904285Y-96501327D02*
X90951904Y-96453707D01*
X90951904Y-96453707D02*
X90999523Y-96358469D01*
X90999523Y-96358469D02*
X90999523Y-95548946D01*
X91904285Y-95882279D02*
X91904285Y-96548946D01*
X91666190Y-95501327D02*
X91428095Y-96215612D01*
X91428095Y-96215612D02*
X92047142Y-96215612D01*
X52605833Y-80818707D02*
X52558214Y-80866327D01*
X52558214Y-80866327D02*
X52415357Y-80913946D01*
X52415357Y-80913946D02*
X52320119Y-80913946D01*
X52320119Y-80913946D02*
X52177262Y-80866327D01*
X52177262Y-80866327D02*
X52082024Y-80771088D01*
X52082024Y-80771088D02*
X52034405Y-80675850D01*
X52034405Y-80675850D02*
X51986786Y-80485374D01*
X51986786Y-80485374D02*
X51986786Y-80342517D01*
X51986786Y-80342517D02*
X52034405Y-80152041D01*
X52034405Y-80152041D02*
X52082024Y-80056803D01*
X52082024Y-80056803D02*
X52177262Y-79961565D01*
X52177262Y-79961565D02*
X52320119Y-79913946D01*
X52320119Y-79913946D02*
X52415357Y-79913946D01*
X52415357Y-79913946D02*
X52558214Y-79961565D01*
X52558214Y-79961565D02*
X52605833Y-80009184D01*
X53558214Y-80913946D02*
X52986786Y-80913946D01*
X53272500Y-80913946D02*
X53272500Y-79913946D01*
X53272500Y-79913946D02*
X53177262Y-80056803D01*
X53177262Y-80056803D02*
X53082024Y-80152041D01*
X53082024Y-80152041D02*
X52986786Y-80199660D01*
D13*
%TO.C,D2*%
X66090000Y-84301627D02*
G75*
G03*
X66090000Y-84301627I-50000J0D01*
G01*
D14*
%TO.C,C5*%
X44725000Y-90484962D02*
X44725000Y-90253292D01*
X45445000Y-90484962D02*
X45445000Y-90253292D01*
D15*
%TO.C,CR3*%
X52212000Y-92157127D02*
X51993140Y-92157127D01*
X50876860Y-92157127D02*
X50658000Y-92157127D01*
X50658000Y-92157127D02*
X50658000Y-94161127D01*
X52212000Y-94161127D02*
X52212000Y-92157127D01*
X51993140Y-94161127D02*
X52212000Y-94161127D01*
X50658000Y-94161127D02*
X50876860Y-94161127D01*
D14*
%TO.C,R23*%
X79505121Y-99004127D02*
X79169879Y-99004127D01*
X79505121Y-98244127D02*
X79169879Y-98244127D01*
%TO.C,U6*%
X106680000Y-85269127D02*
X103230000Y-85269127D01*
X106680000Y-85269127D02*
X108630000Y-85269127D01*
X106680000Y-90389127D02*
X104730000Y-90389127D01*
X106680000Y-90389127D02*
X108630000Y-90389127D01*
%TO.C,Q4*%
X75535000Y-97644127D02*
X77210000Y-97644127D01*
X75535000Y-97644127D02*
X74885000Y-97644127D01*
X75535000Y-94524127D02*
X76185000Y-94524127D01*
X75535000Y-94524127D02*
X74885000Y-94524127D01*
%TO.C,R7*%
X63120000Y-85706748D02*
X63120000Y-85371506D01*
X63880000Y-85706748D02*
X63880000Y-85371506D01*
%TO.C,C2*%
X62590000Y-85423292D02*
X62590000Y-85654962D01*
X61870000Y-85423292D02*
X61870000Y-85654962D01*
D15*
%TO.C,U1*%
X57098999Y-66601227D02*
X70560999Y-66601227D01*
X57098999Y-83466827D02*
X57098999Y-66601227D01*
X70560999Y-66601227D02*
X70560999Y-83466827D01*
X70560999Y-83466827D02*
X57098999Y-83466827D01*
D14*
%TO.C,Q2*%
X75565000Y-90024127D02*
X77240000Y-90024127D01*
X75565000Y-90024127D02*
X74915000Y-90024127D01*
X75565000Y-86904127D02*
X76215000Y-86904127D01*
X75565000Y-86904127D02*
X74915000Y-86904127D01*
%TO.C,R16*%
X79505121Y-87574127D02*
X79169879Y-87574127D01*
X79505121Y-86814127D02*
X79169879Y-86814127D01*
%TO.C,R24*%
X71549879Y-93164127D02*
X71885121Y-93164127D01*
X71549879Y-93924127D02*
X71885121Y-93924127D01*
%TO.C,R25*%
X71624879Y-96974127D02*
X71960121Y-96974127D01*
X71624879Y-97734127D02*
X71960121Y-97734127D01*
%TO.C,R20*%
X71624879Y-89354127D02*
X71960121Y-89354127D01*
X71624879Y-90114127D02*
X71960121Y-90114127D01*
%TO.C,Q1*%
X75565000Y-86214127D02*
X77240000Y-86214127D01*
X75565000Y-86214127D02*
X74915000Y-86214127D01*
X75565000Y-83094127D02*
X76215000Y-83094127D01*
X75565000Y-83094127D02*
X74915000Y-83094127D01*
%TO.C,R4*%
X64390000Y-85744248D02*
X64390000Y-85409006D01*
X65150000Y-85744248D02*
X65150000Y-85409006D01*
%TO.C,R19*%
X71549879Y-85544127D02*
X71885121Y-85544127D01*
X71549879Y-86304127D02*
X71885121Y-86304127D01*
%TO.C,TP1*%
X79375000Y-75764127D02*
X79375000Y-76399127D01*
X78740000Y-75764127D02*
X79375000Y-75764127D01*
%TO.C,R21*%
X79505121Y-91384127D02*
X79169879Y-91384127D01*
X79505121Y-90624127D02*
X79169879Y-90624127D01*
%TO.C,R9*%
X63880000Y-90571506D02*
X63880000Y-90906748D01*
X63120000Y-90571506D02*
X63120000Y-90906748D01*
%TO.C,C6*%
X55360835Y-75739127D02*
X55129165Y-75739127D01*
X55360835Y-75019127D02*
X55129165Y-75019127D01*
%TO.C,C7*%
X82910000Y-99778292D02*
X82910000Y-100009962D01*
X82190000Y-99778292D02*
X82190000Y-100009962D01*
%TO.C,C4*%
X45995000Y-90484962D02*
X45995000Y-90253292D01*
X46715000Y-90484962D02*
X46715000Y-90253292D01*
%TO.C,C3*%
X65130000Y-90623292D02*
X65130000Y-90854962D01*
X64410000Y-90623292D02*
X64410000Y-90854962D01*
%TO.C,R3*%
X66849205Y-85719958D02*
X66849205Y-85384716D01*
X67609205Y-85719958D02*
X67609205Y-85384716D01*
%TO.C,R15*%
X102110000Y-93376506D02*
X102110000Y-93711748D01*
X101350000Y-93376506D02*
X101350000Y-93711748D01*
%TO.C,Q5*%
X75565000Y-101454127D02*
X77240000Y-101454127D01*
X75565000Y-101454127D02*
X74915000Y-101454127D01*
X75565000Y-98334127D02*
X76215000Y-98334127D01*
X75565000Y-98334127D02*
X74915000Y-98334127D01*
%TO.C,R1*%
X49937621Y-79954127D02*
X49602379Y-79954127D01*
X49937621Y-79194127D02*
X49602379Y-79194127D01*
%TO.C,CP3*%
X131817262Y-76260138D02*
G75*
G03*
X131817262Y-76260138I-1200000J0D01*
G01*
D13*
%TO.C,U2*%
X47525000Y-83764127D02*
X47525000Y-84164127D01*
X47525000Y-86514127D02*
X47525000Y-86989127D01*
X47525000Y-86989127D02*
X47825000Y-87314127D01*
X47825000Y-87314127D02*
X47825000Y-87509127D01*
X48025000Y-83764127D02*
X47525000Y-83764127D01*
X53700000Y-83764127D02*
X54075000Y-83764127D01*
X54075000Y-83764127D02*
X54075000Y-84064127D01*
X54075000Y-86839127D02*
X54075000Y-87314127D01*
X54075000Y-87314127D02*
X53625000Y-87314127D01*
D14*
%TO.C,U3*%
X45110000Y-94311627D02*
X45110000Y-96111627D01*
X45110000Y-94311627D02*
X45110000Y-93511627D01*
X48230000Y-94311627D02*
X48230000Y-95111627D01*
X48230000Y-94311627D02*
X48230000Y-93511627D01*
%TO.C,Q3*%
X75535000Y-93834127D02*
X77210000Y-93834127D01*
X75535000Y-93834127D02*
X74885000Y-93834127D01*
X75535000Y-90714127D02*
X76185000Y-90714127D01*
X75535000Y-90714127D02*
X74885000Y-90714127D01*
%TO.C,JP1*%
X45215000Y-83084127D02*
X45215000Y-83684127D01*
X44515000Y-84384127D02*
X43115000Y-84384127D01*
X43115000Y-82384127D02*
X44515000Y-82384127D01*
X42415000Y-83684127D02*
X42415000Y-83084127D01*
X44515000Y-84384127D02*
G75*
G03*
X45215000Y-83684127I1J699999D01*
G01*
X45215000Y-83084127D02*
G75*
G03*
X44515000Y-82384127I-699999J1D01*
G01*
X42415000Y-83684127D02*
G75*
G03*
X43115000Y-84384127I700000J0D01*
G01*
X43115000Y-82384127D02*
G75*
G03*
X42415000Y-83084127I0J-700000D01*
G01*
D15*
%TO.C,CR4*%
X54117000Y-92157127D02*
X53898140Y-92157127D01*
X52781860Y-92157127D02*
X52563000Y-92157127D01*
X52563000Y-92157127D02*
X52563000Y-94161127D01*
X54117000Y-94161127D02*
X54117000Y-92157127D01*
X53898140Y-94161127D02*
X54117000Y-94161127D01*
X52563000Y-94161127D02*
X52781860Y-94161127D01*
D14*
%TO.C,L2*%
X85620242Y-101724127D02*
X84799758Y-101724127D01*
X85620242Y-100604127D02*
X84799758Y-100604127D01*
%TO.C,R8*%
X61340000Y-85371506D02*
X61340000Y-85706748D01*
X60580000Y-85371506D02*
X60580000Y-85706748D01*
%TO.C,R22*%
X79505121Y-95194127D02*
X79169879Y-95194127D01*
X79505121Y-94434127D02*
X79169879Y-94434127D01*
D15*
%TO.C,CR2*%
X67803000Y-92376127D02*
X68021860Y-92376127D01*
X69138140Y-92376127D02*
X69357000Y-92376127D01*
X69357000Y-92376127D02*
X69357000Y-90372127D01*
X67803000Y-90372127D02*
X67803000Y-92376127D01*
X68021860Y-90372127D02*
X67803000Y-90372127D01*
X69357000Y-90372127D02*
X69138140Y-90372127D01*
%TO.C,CR1*%
X65898000Y-92376127D02*
X66116860Y-92376127D01*
X67233140Y-92376127D02*
X67452000Y-92376127D01*
X67452000Y-92376127D02*
X67452000Y-90372127D01*
X65898000Y-90372127D02*
X65898000Y-92376127D01*
X66116860Y-90372127D02*
X65898000Y-90372127D01*
X67452000Y-90372127D02*
X67233140Y-90372127D01*
D14*
%TO.C,R2*%
X55144879Y-78809127D02*
X55480121Y-78809127D01*
X55144879Y-79569127D02*
X55480121Y-79569127D01*
%TO.C,U5*%
X106745000Y-92889127D02*
X103295000Y-92889127D01*
X106745000Y-92889127D02*
X108695000Y-92889127D01*
X106745000Y-98009127D02*
X104795000Y-98009127D01*
X106745000Y-98009127D02*
X108695000Y-98009127D01*
%TO.C,JP2*%
X45215000Y-85624127D02*
X45215000Y-86224127D01*
X44515000Y-86924127D02*
X43115000Y-86924127D01*
X43115000Y-84924127D02*
X44515000Y-84924127D01*
X42415000Y-86224127D02*
X42415000Y-85624127D01*
X44515000Y-86924127D02*
G75*
G03*
X45215000Y-86224127I1J699999D01*
G01*
X45215000Y-85624127D02*
G75*
G03*
X44515000Y-84924127I-699999J1D01*
G01*
X42415000Y-86224127D02*
G75*
G03*
X43115000Y-86924127I700000J0D01*
G01*
X43115000Y-84924127D02*
G75*
G03*
X42415000Y-85624127I0J-700000D01*
G01*
%TO.C,R6*%
X68200000Y-85706748D02*
X68200000Y-85371506D01*
X68960000Y-85706748D02*
X68960000Y-85371506D01*
%TO.C,R10*%
X47157621Y-98369127D02*
X46822379Y-98369127D01*
X47157621Y-97609127D02*
X46822379Y-97609127D01*
%TO.C,C8*%
X86561665Y-91914127D02*
X86793335Y-91914127D01*
X86561665Y-92634127D02*
X86793335Y-92634127D01*
%TO.C,R5*%
X55114879Y-76269127D02*
X55450121Y-76269127D01*
X55114879Y-77029127D02*
X55450121Y-77029127D01*
%TO.C,L1*%
X85620242Y-99184127D02*
X84799758Y-99184127D01*
X85620242Y-98064127D02*
X84799758Y-98064127D01*
%TO.C,R26*%
X71624879Y-100784127D02*
X71960121Y-100784127D01*
X71624879Y-101544127D02*
X71960121Y-101544127D01*
%TO.C,R13*%
X86539879Y-94434127D02*
X86875121Y-94434127D01*
X86539879Y-95194127D02*
X86875121Y-95194127D01*
%TO.C,R18*%
X101980000Y-85756506D02*
X101980000Y-86091748D01*
X101220000Y-85756506D02*
X101220000Y-86091748D01*
%TO.C,CP1*%
X131817262Y-102295138D02*
G75*
G03*
X131817262Y-102295138I-1200000J0D01*
G01*
%TO.C,R11*%
X95429879Y-94434127D02*
X95765121Y-94434127D01*
X95429879Y-95194127D02*
X95765121Y-95194127D01*
%TO.C,R12*%
X95765121Y-93924127D02*
X95429879Y-93924127D01*
X95765121Y-93164127D02*
X95429879Y-93164127D01*
%TO.C,R17*%
X79505121Y-83764127D02*
X79169879Y-83764127D01*
X79505121Y-83004127D02*
X79169879Y-83004127D01*
%TO.C,R14*%
X86614879Y-93164127D02*
X86950121Y-93164127D01*
X86614879Y-93924127D02*
X86950121Y-93924127D01*
D13*
%TO.C,D1*%
X50817500Y-78304127D02*
G75*
G03*
X50817500Y-78304127I-50000J0D01*
G01*
D12*
%TO.C,U4*%
X92815000Y-95169127D02*
X92815000Y-94994127D01*
X92815000Y-95169127D02*
X89565000Y-95169127D01*
X92815000Y-94994127D02*
X93890000Y-94994127D01*
X92815000Y-91919127D02*
X92815000Y-92194127D01*
X92815000Y-91919127D02*
X89565000Y-91919127D01*
X89565000Y-95169127D02*
X89565000Y-94894127D01*
X89565000Y-91919127D02*
X89565000Y-92194127D01*
D14*
%TO.C,C1*%
X55428335Y-80819127D02*
X55196665Y-80819127D01*
X55428335Y-80099127D02*
X55196665Y-80099127D01*
%TD*%
M02*
