%TF.GenerationSoftware,KiCad,Pcbnew,7.0.6*%
%TF.CreationDate,2023-10-18T20:18:50+02:00*%
%TF.ProjectId,Hydrofoil,48796472-6f66-46f6-996c-2e6b69636164,rev?*%
%TF.SameCoordinates,Original*%
%TF.FileFunction,OtherDrawing,Comment*%
%FSLAX46Y46*%
G04 Gerber Fmt 4.6, Leading zero omitted, Abs format (unit mm)*
G04 Created by KiCad (PCBNEW 7.0.6) date 2023-10-18 20:18:50*
%MOMM*%
%LPD*%
G01*
G04 APERTURE LIST*
%ADD10C,0.200000*%
%ADD11C,0.150000*%
G04 APERTURE END LIST*
D10*
X42747349Y-77680000D02*
G75*
G03*
X42747349Y-77680000I-900000J0D01*
G01*
X87897349Y-77680000D02*
G75*
G03*
X87897349Y-77680000I-1050000J0D01*
G01*
X97897349Y-87680000D02*
G75*
G03*
X97897349Y-87680000I-1050000J0D01*
G01*
D11*
X222726434Y-106672900D02*
X222739743Y-71694298D01*
X135731525Y-101398382D02*
X247787205Y-101398382D01*
X247787205Y-103536300D01*
X135731525Y-103536300D01*
X135731525Y-101398382D01*
D10*
X252847349Y-98680000D02*
X252847349Y-79680000D01*
D11*
X247799607Y-106612202D02*
X247797188Y-71667478D01*
D10*
X255847349Y-76680000D02*
X256847349Y-76680000D01*
X98847349Y-87680000D02*
G75*
G03*
X98847349Y-87680000I-2000000J0D01*
G01*
D11*
X135731525Y-106586824D02*
X135738785Y-71708645D01*
D10*
X98397349Y-77680000D02*
G75*
G03*
X98397349Y-77680000I-1550000J0D01*
G01*
D11*
X135738785Y-71708645D02*
X247766940Y-71708645D01*
X247766940Y-74759169D01*
X135738785Y-74759169D01*
X135738785Y-71708645D01*
D10*
X256847349Y-76680000D02*
X256847349Y-101680000D01*
D11*
X135731525Y-103536300D02*
X247759680Y-103536300D01*
X247759680Y-106586824D01*
X135731525Y-106586824D01*
X135731525Y-103536300D01*
D10*
X256847349Y-101680000D02*
X255847349Y-101680000D01*
X88847349Y-77680000D02*
G75*
G03*
X88847349Y-77680000I-2000000J0D01*
G01*
X255847349Y-76680049D02*
G75*
G03*
X252847349Y-79680000I51J-3000051D01*
G01*
D11*
X135738785Y-76751594D02*
X247798080Y-76751594D01*
X247798080Y-78889512D01*
X135738785Y-78889512D01*
X135738785Y-76751594D01*
D10*
X100847349Y-77680000D02*
G75*
G03*
X100847349Y-77680000I-4000000J0D01*
G01*
X43597349Y-100680000D02*
G75*
G03*
X43597349Y-100680000I-1750000J0D01*
G01*
X252847400Y-98680000D02*
G75*
G03*
X255847349Y-101680000I3000100J100D01*
G01*
D11*
X135731525Y-99405957D02*
X247797004Y-99405957D01*
X247797004Y-101398382D01*
X135731525Y-101398382D01*
X135731525Y-99405957D01*
D10*
X42747349Y-100680000D02*
G75*
G03*
X42747349Y-100680000I-900000J0D01*
G01*
D11*
X135738785Y-74759169D02*
X247801427Y-74759169D01*
X247801427Y-76751594D01*
X135738785Y-76751594D01*
X135738785Y-74759169D01*
D10*
X43597349Y-77680000D02*
G75*
G03*
X43597349Y-77680000I-1750000J0D01*
G01*
M02*
