%TF.GenerationSoftware,KiCad,Pcbnew,7.0.6*%
%TF.CreationDate,2023-10-18T20:18:50+02:00*%
%TF.ProjectId,Hydrofoil,48796472-6f66-46f6-996c-2e6b69636164,rev?*%
%TF.SameCoordinates,Original*%
%TF.FileFunction,Soldermask,Bot*%
%TF.FilePolarity,Negative*%
%FSLAX46Y46*%
G04 Gerber Fmt 4.6, Leading zero omitted, Abs format (unit mm)*
G04 Created by KiCad (PCBNEW 7.0.6) date 2023-10-18 20:18:50*
%MOMM*%
%LPD*%
G01*
G04 APERTURE LIST*
%ADD10C,0.150000*%
%ADD11C,0.200000*%
%ADD12R,1.700000X1.700000*%
%ADD13O,1.700000X1.700000*%
%ADD14C,0.990600*%
%ADD15C,2.000000*%
G04 APERTURE END LIST*
D10*
X135717278Y-99373207D02*
X247795002Y-99373207D01*
X247795002Y-103533764D01*
X135717278Y-103533764D01*
X135717278Y-99373207D01*
G36*
X135717278Y-99373207D02*
G01*
X247795002Y-99373207D01*
X247795002Y-103533764D01*
X135717278Y-103533764D01*
X135717278Y-99373207D01*
G37*
D11*
X256900087Y-101665334D02*
X255900087Y-101665334D01*
G75*
G02*
X252900087Y-98665334I13J3000034D01*
G01*
X252900087Y-79665334D01*
G75*
G02*
X255900087Y-76665334I3000013J34D01*
G01*
X256900087Y-76665334D01*
X256900087Y-101665334D01*
G36*
X256900087Y-101665334D02*
G01*
X255900087Y-101665334D01*
G75*
G02*
X252900087Y-98665334I13J3000034D01*
G01*
X252900087Y-79665334D01*
G75*
G02*
X255900087Y-76665334I3000013J34D01*
G01*
X256900087Y-76665334D01*
X256900087Y-101665334D01*
G37*
D10*
X135786546Y-74672328D02*
X222745658Y-74672328D01*
X222745658Y-78898758D01*
X135786546Y-78898758D01*
X135786546Y-74672328D01*
G36*
X135786546Y-74672328D02*
G01*
X222745658Y-74672328D01*
X222745658Y-78898758D01*
X135786546Y-78898758D01*
X135786546Y-74672328D01*
G37*
D12*
%TO.C,J2*%
X62865000Y-101799127D03*
D13*
X60325000Y-101799127D03*
X57785000Y-101799127D03*
%TD*%
D14*
%TO.C,TP1*%
X80010000Y-77034127D03*
X74930000Y-78050127D03*
X74930000Y-76018127D03*
%TD*%
D12*
%TO.C,J1*%
X53975000Y-101799127D03*
D13*
X51435000Y-101799127D03*
X48895000Y-101799127D03*
%TD*%
D15*
%TO.C,CP4*%
X130617262Y-76260138D03*
%TD*%
%TO.C,CP2*%
X130617262Y-102295138D03*
%TD*%
M02*
