%TF.GenerationSoftware,KiCad,Pcbnew,7.0.6*%
%TF.CreationDate,2023-10-18T20:18:50+02:00*%
%TF.ProjectId,Hydrofoil,48796472-6f66-46f6-996c-2e6b69636164,rev?*%
%TF.SameCoordinates,Original*%
%TF.FileFunction,Legend,Bot*%
%TF.FilePolarity,Positive*%
%FSLAX46Y46*%
G04 Gerber Fmt 4.6, Leading zero omitted, Abs format (unit mm)*
G04 Created by KiCad (PCBNEW 7.0.6) date 2023-10-18 20:18:50*
%MOMM*%
%LPD*%
G01*
G04 APERTURE LIST*
%ADD10C,0.150000*%
%ADD11C,0.120000*%
G04 APERTURE END LIST*
D10*
X131298358Y-74195156D02*
X131345977Y-74242776D01*
X131345977Y-74242776D02*
X131488834Y-74290395D01*
X131488834Y-74290395D02*
X131584072Y-74290395D01*
X131584072Y-74290395D02*
X131726929Y-74242776D01*
X131726929Y-74242776D02*
X131822167Y-74147537D01*
X131822167Y-74147537D02*
X131869786Y-74052299D01*
X131869786Y-74052299D02*
X131917405Y-73861823D01*
X131917405Y-73861823D02*
X131917405Y-73718966D01*
X131917405Y-73718966D02*
X131869786Y-73528490D01*
X131869786Y-73528490D02*
X131822167Y-73433252D01*
X131822167Y-73433252D02*
X131726929Y-73338014D01*
X131726929Y-73338014D02*
X131584072Y-73290395D01*
X131584072Y-73290395D02*
X131488834Y-73290395D01*
X131488834Y-73290395D02*
X131345977Y-73338014D01*
X131345977Y-73338014D02*
X131298358Y-73385633D01*
X130869786Y-74290395D02*
X130869786Y-73290395D01*
X130869786Y-73290395D02*
X130488834Y-73290395D01*
X130488834Y-73290395D02*
X130393596Y-73338014D01*
X130393596Y-73338014D02*
X130345977Y-73385633D01*
X130345977Y-73385633D02*
X130298358Y-73480871D01*
X130298358Y-73480871D02*
X130298358Y-73623728D01*
X130298358Y-73623728D02*
X130345977Y-73718966D01*
X130345977Y-73718966D02*
X130393596Y-73766585D01*
X130393596Y-73766585D02*
X130488834Y-73814204D01*
X130488834Y-73814204D02*
X130869786Y-73814204D01*
X129441215Y-73623728D02*
X129441215Y-74290395D01*
X129679310Y-73242776D02*
X129917405Y-73957061D01*
X129917405Y-73957061D02*
X129298358Y-73957061D01*
X131266901Y-100077627D02*
X131314520Y-100125247D01*
X131314520Y-100125247D02*
X131457377Y-100172866D01*
X131457377Y-100172866D02*
X131552615Y-100172866D01*
X131552615Y-100172866D02*
X131695472Y-100125247D01*
X131695472Y-100125247D02*
X131790710Y-100030008D01*
X131790710Y-100030008D02*
X131838329Y-99934770D01*
X131838329Y-99934770D02*
X131885948Y-99744294D01*
X131885948Y-99744294D02*
X131885948Y-99601437D01*
X131885948Y-99601437D02*
X131838329Y-99410961D01*
X131838329Y-99410961D02*
X131790710Y-99315723D01*
X131790710Y-99315723D02*
X131695472Y-99220485D01*
X131695472Y-99220485D02*
X131552615Y-99172866D01*
X131552615Y-99172866D02*
X131457377Y-99172866D01*
X131457377Y-99172866D02*
X131314520Y-99220485D01*
X131314520Y-99220485D02*
X131266901Y-99268104D01*
X130838329Y-100172866D02*
X130838329Y-99172866D01*
X130838329Y-99172866D02*
X130457377Y-99172866D01*
X130457377Y-99172866D02*
X130362139Y-99220485D01*
X130362139Y-99220485D02*
X130314520Y-99268104D01*
X130314520Y-99268104D02*
X130266901Y-99363342D01*
X130266901Y-99363342D02*
X130266901Y-99506199D01*
X130266901Y-99506199D02*
X130314520Y-99601437D01*
X130314520Y-99601437D02*
X130362139Y-99649056D01*
X130362139Y-99649056D02*
X130457377Y-99696675D01*
X130457377Y-99696675D02*
X130838329Y-99696675D01*
X129885948Y-99268104D02*
X129838329Y-99220485D01*
X129838329Y-99220485D02*
X129743091Y-99172866D01*
X129743091Y-99172866D02*
X129504996Y-99172866D01*
X129504996Y-99172866D02*
X129409758Y-99220485D01*
X129409758Y-99220485D02*
X129362139Y-99268104D01*
X129362139Y-99268104D02*
X129314520Y-99363342D01*
X129314520Y-99363342D02*
X129314520Y-99458580D01*
X129314520Y-99458580D02*
X129362139Y-99601437D01*
X129362139Y-99601437D02*
X129933567Y-100172866D01*
X129933567Y-100172866D02*
X129314520Y-100172866D01*
D11*
%TO.C,CP4*%
X131817262Y-76260138D02*
G75*
G03*
X131817262Y-76260138I-1200000J0D01*
G01*
%TO.C,CP2*%
X131817262Y-102295138D02*
G75*
G03*
X131817262Y-102295138I-1200000J0D01*
G01*
%TD*%
M02*
